<svg width="38" height="38" viewBox="0 0 38 38" fill="none" xmlns="http://www.w3.org/2000/svg">
<path d="M36.25 0.25H1.75C0.920312 0.25 0.25 0.920312 0.25 1.75V36.25C0.25 37.0797 0.920312 37.75 1.75 37.75H36.25C37.0797 37.75 37.75 37.0797 37.75 36.25V1.75C37.75 0.920312 37.0797 0.25 36.25 0.25ZM23.0547 11.4484H29.5422V13.0281H23.0547V11.4484ZM19 24.475C18.6966 25.051 18.2633 25.5485 17.7344 25.9281C17.1812 26.3125 16.5672 26.5938 15.9156 26.7578C15.2339 26.9405 14.5307 27.0304 13.825 27.025H6.0625V11.0359H13.6094C14.3734 11.0359 15.0672 11.1062 15.7 11.2375C16.3281 11.3687 16.8625 11.5938 17.3125 11.8984C17.7578 12.2031 18.1094 12.6109 18.3578 13.1172C18.6016 13.6187 18.7281 14.2469 18.7281 14.9922C18.7281 15.7984 18.5453 16.4641 18.1797 17.0031C17.8094 17.5422 17.275 17.9781 16.5484 18.3203C17.5375 18.6016 18.2641 19.1031 18.7422 19.8063C19.2297 20.5188 19.4688 21.3719 19.4688 22.375C19.4688 23.1906 19.3141 23.8891 19 24.475ZM32.0687 22H23.7063C23.7063 22.9094 24.0203 23.7812 24.4938 24.25C24.9719 24.7141 25.6562 24.9484 26.5516 24.9484C27.1984 24.9484 27.7469 24.7844 28.2156 24.4609C28.6797 24.1375 28.9609 23.7953 29.0641 23.4391H31.8672C31.4172 24.8313 30.7328 25.825 29.8047 26.425C28.8859 27.025 27.7609 27.325 26.4531 27.325C25.5391 27.325 24.7187 27.175 23.9828 26.8891C23.275 26.6125 22.6375 26.1906 22.1125 25.6469C21.5949 25.0885 21.1947 24.4317 20.9359 23.7156C20.65 22.9234 20.5094 22.0891 20.5188 21.25C20.5188 20.3828 20.6641 19.5766 20.9453 18.8266C21.4844 17.3687 22.6047 16.2016 24.0344 15.5969C24.7984 15.2781 25.6188 15.1187 26.4484 15.1281C27.4328 15.1281 28.2859 15.3156 29.0266 15.7C29.7396 16.067 30.3586 16.5931 30.8359 17.2375C31.3094 17.8797 31.6422 18.6109 31.8531 19.4359C32.0547 20.2469 32.125 21.1 32.0687 22V22ZM26.35 17.5187C25.8437 17.5187 25.4172 17.6078 25.0891 17.7812C24.7609 17.9547 24.4891 18.1703 24.2828 18.4188C24.0864 18.6586 23.9412 18.9362 23.8562 19.2344C23.7812 19.4828 23.7297 19.7359 23.7109 19.9938H28.8906C28.8156 19.1828 28.5344 18.5828 28.1594 18.1609C27.7656 17.7438 27.1328 17.5187 26.35 17.5187V17.5187ZM14.7016 17.0453C15.1094 16.75 15.3063 16.2625 15.3063 15.5922C15.3203 15.2734 15.2547 14.9594 15.1141 14.6734C14.9875 14.4438 14.8 14.2516 14.5703 14.1156C14.3322 13.9712 14.0676 13.8756 13.7922 13.8344C13.4922 13.7781 13.1875 13.75 12.8875 13.7547H9.59219V17.4906H13.1594C13.7734 17.4953 14.2937 17.3453 14.7016 17.0453V17.0453ZM15.2547 20.4203C14.7953 20.0687 14.1812 19.8953 13.4172 19.8953H9.58281V24.3016H13.3422C13.6937 24.3016 14.0172 24.2687 14.3312 24.2031C14.6453 24.1375 14.9266 24.025 15.1656 23.8656C15.4047 23.7109 15.5969 23.5 15.7422 23.2281C15.8828 22.9563 15.9531 22.6094 15.9531 22.1922C15.9531 21.3625 15.7188 20.7766 15.2547 20.4203V20.4203Z" fill="#82A899"/>
</svg>
