<svg width="164" height="181" viewBox="0 0 164 181" fill="none" xmlns="http://www.w3.org/2000/svg">
<path fill-rule="evenodd" clip-rule="evenodd" d="M77.6011 1.83744C80.5151 0.202626 84.1024 0.202626 87.0121 1.83744C101.41 9.91626 144.736 34.2339 159.137 42.3127C162.051 43.9431 163.845 46.9635 163.845 50.2331C163.845 66.3903 163.845 115.022 163.845 131.18C163.845 134.449 162.051 137.469 159.137 139.104C144.74 147.183 101.414 171.501 87.0121 179.579C84.0986 181.214 80.5107 181.214 77.6011 179.579C63.2036 171.501 19.878 147.183 5.47612 139.104C2.5665 137.469 0.772827 134.453 0.772827 131.184C0.772827 115.026 0.772827 66.3947 0.772827 50.237C0.772827 46.9679 2.5665 43.9475 5.4805 42.3127C19.8736 34.2339 63.208 9.91626 77.6011 1.83744Z" fill="#283593"/>
</svg>
