<svg width="373" height="512" viewBox="0 0 373 512" fill="none" xmlns="http://www.w3.org/2000/svg">
<path d="M0 413.269L3.09955 408.929L149.723 130.717L150.033 127.771L85.3982 6.36434C79.983 -3.8057 64.7382 -1.23436 62.961 10.1502L0 413.269Z" fill="#FFC24A"/>
<path d="M1.82825 409.96L4.17296 405.388L149.261 130.091L84.7873 8.18965C79.4289 -1.87383 65.8218 0.691558 64.0633 11.9568L1.82825 409.96Z" fill="#FFA712"/>
<path d="M197.153 219.605L245.278 170.317L197.139 78.4186C192.569 69.7198 179.81 69.6947 175.288 78.4186L149.569 127.469V131.647L197.153 219.605Z" fill="#F4BD62"/>
<path d="M196.294 217.551L243.081 169.634L196.294 80.5439C191.851 72.087 181.058 71.2009 176.662 79.6822L150.807 129.493L150.034 132.039L196.294 217.551Z" fill="#FFA50E"/>
<path d="M0 413.269L1.40498 411.857L6.50971 409.782L194.129 222.86L196.506 216.389L149.703 127.202L0 413.269Z" fill="#F6820C"/>
<path d="M203.162 507.538L372.961 412.84L324.472 114.211C322.955 104.868 311.493 101.174 304.805 107.873L0 413.269L168.826 507.53C179.495 513.487 192.489 513.49 203.162 507.538Z" fill="#FDE068"/>
<path d="M371.439 412.045L323.319 115.684C321.813 106.412 312.281 102.575 305.645 109.223L1.88245 412.689L168.854 506.017C179.442 511.929 192.338 511.932 202.929 506.025L371.439 412.045Z" fill="#FCCA3F"/>
<path d="M203.162 504.748C192.489 510.7 179.495 510.697 168.826 504.74L1.35979 411.833L0 413.269L168.826 507.53C179.495 513.487 192.489 513.49 203.162 507.538L372.961 412.84L372.545 410.281L203.162 504.748Z" fill="#EEAB37"/>
</svg>
