<?xml version="1.0" encoding="UTF-8"?>
<svg version="1.1" xmlns="http://www.w3.org/2000/svg" width="978" height="742">
<path d="M0 0 C322.74 0 645.48 0 978 0 C978 244.86 978 489.72 978 742 C655.26 742 332.52 742 0 742 C0 497.14 0 252.28 0 0 Z " fill="#FEFEFE" transform="translate(0,0)"/>
<path d="M0 0 C5.93229303 6.20194271 9.86244866 12.9406014 9.88701439 21.59721375 C9.89208893 22.54874454 9.89716347 23.50027534 9.90239179 24.48064041 C9.90288955 25.52303249 9.90338731 26.56542458 9.90390015 27.6394043 C9.91047353 29.30404535 9.91047353 29.30404535 9.9171797 31.00231552 C9.9305733 34.7346183 9.93674789 38.46689746 9.94287109 42.19921875 C9.95077169 44.86996133 9.95903568 47.54070088 9.96765137 50.21144104 C9.99215917 58.23659019 10.00680111 66.2617455 10.01971143 74.28692055 C10.02342486 76.55478073 10.02739798 78.8226403 10.0314641 81.09049988 C10.05670456 95.18236684 10.07875138 109.27423481 10.09119225 123.36611938 C10.09412181 126.62933353 10.09708349 129.89254765 10.10009766 133.15576172 C10.10084371 133.96678982 10.10158976 134.77781792 10.10235842 135.61342263 C10.11500308 148.74187641 10.14821494 161.87019448 10.18989949 174.99858487 C10.23237366 188.48659835 10.25589368 201.97454247 10.26111281 215.46262264 C10.26452096 223.03184556 10.27620527 230.60085649 10.30921555 238.17001343 C10.33729288 244.6185384 10.34818197 251.06680792 10.33702008 257.51538926 C10.33185263 260.80211894 10.33735204 264.08820531 10.35948563 267.37487984 C10.38223616 270.9486031 10.37385297 274.520995 10.35800171 278.09472656 C10.3718838 279.11927287 10.38576588 280.14381918 10.40006864 281.19941235 C10.30778872 289.68719375 8.25729167 297.8893436 2.54070508 304.38562393 C-4.89100156 311.42672159 -11.57002866 313.54006283 -21.75 313.28125 C-32.6637545 312.01447492 -40.56191066 304.19956553 -47.43603516 296.18286133 C-50.97479396 292.12631793 -54.71562709 288.34377372 -58.57421875 284.59375 C-59.9464032 283.24393638 -61.31813469 281.89366217 -62.68945312 280.54296875 C-64.81778243 278.4517629 -66.94898538 276.36383145 -69.08813477 274.28369141 C-71.17612101 272.25044458 -73.25096085 270.20449904 -75.32421875 268.15625 C-75.95970139 267.54454956 -76.59518402 266.93284912 -77.24992371 266.3026123 C-82.38814512 261.1947331 -86.54525022 255.27487271 -87.25 247.875 C-87.37955078 246.83279297 -87.37955078 246.83279297 -87.51171875 245.76953125 C-88.06106441 238.09089972 -85.57936306 232.15699415 -81.25 225.875 C-76.33215722 220.91401825 -71.03730573 217.17941701 -63.9453125 216.609375 C-62.76710938 216.61453125 -61.58890625 216.6196875 -60.375 216.625 C-59.20195313 216.61984375 -58.02890625 216.6146875 -56.8203125 216.609375 C-53.25 216.875 -53.25 216.875 -46.25 218.875 C-46.58 176.635 -46.91 134.395 -47.25 90.875 C-54.29214844 97.96355469 -61.33429688 105.05210937 -68.58984375 112.35546875 C-73.05944217 116.84550868 -77.52954195 121.33503031 -82.00195312 125.82226562 C-89.09844393 132.94246782 -96.1928243 140.06468543 -103.27368164 147.20043945 C-108.43121804 152.3979421 -113.59583288 157.58828904 -118.76894099 162.77029496 C-121.50584899 165.51240115 -124.23917041 168.25787295 -126.96403313 171.01195335 C-129.53341535 173.60865945 -132.11222101 176.19563192 -134.69828796 178.77571869 C-136.08813184 180.16717287 -137.46804788 181.56852179 -138.84754944 182.9702301 C-146.82207797 190.892889 -154.02418886 195.89546465 -165.4375 196.25 C-173.42298205 196.18726333 -178.0199545 193.59117462 -184 188.5625 C-189.33991082 182.18427319 -192.38443255 176.74161321 -192.625 168.3125 C-192.69847656 166.57806641 -192.69847656 166.57806641 -192.7734375 164.80859375 C-191.1059402 152.27747595 -181.48421044 144.40298977 -172.96386719 135.95776367 C-171.4890226 134.477775 -170.01524999 132.99671743 -168.54246521 131.51467896 C-164.55587001 127.50962533 -160.55378906 123.52039261 -156.54812145 119.5344255 C-152.34981782 115.35255373 -148.16417261 111.158044 -143.97662354 106.96540833 C-136.94420406 99.92847325 -129.90167721 92.90177874 -122.85302734 85.88110352 C-114.71372882 77.77386041 -106.59058985 69.65069782 -98.47593379 61.51879519 C-90.65610081 53.68307789 -82.82498713 45.85872897 -74.98868561 38.03948402 C-71.65986845 34.7175243 -68.3350183 31.39166813 -65.01332855 28.06258202 C-61.09902199 24.1405932 -57.17490546 20.22868636 -53.24312019 16.32422256 C-51.80503128 14.89299786 -50.37029232 13.45839772 -48.93924522 12.02013206 C-34.27717027 -2.7073402 -19.92572095 -13.028356 0 0 Z " fill="#3FB872" transform="translate(606.25,171.125)"/>
<path d="M0 0 C4.09365007 3.40613292 7.82041425 7.13832324 11.5546875 10.92578125 C12.62860253 11.99886552 13.70333573 13.07113156 14.77883911 14.1426239 C17.01720265 16.37814658 19.24663328 18.62209678 21.46972656 20.87280273 C24.30550448 23.7427221 27.16096092 26.59206424 30.02317619 29.43558979 C32.2406793 31.6424777 34.44826046 33.85908185 36.65295792 36.07875633 C37.7018496 37.13279294 38.75352441 38.18406822 39.80813217 39.23238564 C47.40426325 46.80016436 53.34114678 53.48907325 54.3125 64.5625 C54.15696434 72.91476504 50.63553051 80.35978196 44.93359375 86.34375 C39.11375981 91.32881988 32.73245034 93.13377483 25.1875 93.25 C24.19105469 93.27578125 23.19460938 93.3015625 22.16796875 93.328125 C19 93 19 93 12 90 C12 132.24 12 174.48 12 218 C19.05375 210.89984375 26.1075 203.7996875 33.375 196.484375 C37.84915696 191.98977904 42.3238142 187.49570025 46.80078125 183.00390625 C53.90613752 175.87482878 61.00937456 168.7437269 68.09912109 161.59912109 C73.26288838 156.39541665 78.43370856 151.19884214 83.61302948 146.01061654 C86.3538154 143.26462755 89.09100175 140.51525929 91.81976318 137.75731659 C94.39162765 135.15817438 96.97286507 132.56871486 99.56139565 129.98617363 C100.95500835 128.59094673 102.33868288 127.18581489 103.7219696 125.78034973 C110.71994616 118.82796505 117.47321247 114.00164326 127.625 113.6875 C135.98300174 113.78611949 143.19804946 117.06312038 149 123 C153.5909041 129.25011673 155.14983129 133.90508646 155.3125 141.6875 C155.36857422 143.42580078 155.36857422 143.42580078 155.42578125 145.19921875 C154.50935263 153.3798155 150.56515954 159.18167948 144.80903625 164.82588196 C144.19126869 165.45144948 143.57350112 166.077017 142.93701333 166.72154111 C140.8815536 168.79680833 138.8088518 170.85390066 136.7355957 172.91137695 C135.25105321 174.40270049 133.76757522 175.89508433 132.28507996 177.38844299 C128.26754939 181.42871494 124.23442685 185.45307384 120.1975863 189.47404122 C115.96888247 193.6900596 111.75242181 197.9182942 107.53398132 202.14457703 C100.44869763 209.2389495 93.35295463 216.32273233 86.2512207 223.40063477 C78.0484478 231.57619822 69.86384259 239.76961812 61.68844157 247.97254592 C54.66054373 255.02315552 47.62292136 262.06394706 40.5771243 269.09666985 C36.3725816 273.29342955 32.1714613 277.49346549 27.97908974 281.70238686 C24.03657377 285.65937801 20.08196561 289.60387684 16.11781502 293.53919029 C14.66755697 294.98285403 13.22150547 296.43075815 11.78007889 297.88323975 C9.80672047 299.87032914 7.81848829 301.84127494 5.82588196 303.80903625 C5.26340187 304.38266995 4.70092178 304.95630365 4.12139684 305.54732019 C-2.0524585 311.57345113 -8.87153265 314.57373037 -17.5625 314.5 C-23.67084607 314.32879511 -28.03160027 313.56832699 -33 310 C-33.886875 309.4225 -34.77375 308.845 -35.6875 308.25 C-40.37084944 303.69322758 -44.54792762 297.23776995 -45.25299966 290.62835681 C-45.25440851 289.80083349 -45.25581736 288.97331016 -45.25726891 288.12071037 C-45.2637178 287.15960503 -45.27016669 286.1984997 -45.276811 285.20826995 C-45.2721652 283.63635507 -45.2721652 283.63635507 -45.26742554 282.03268433 C-45.27195665 280.91319653 -45.27648776 279.79370873 -45.28115618 278.64029706 C-45.29383779 274.88108732 -45.29217735 271.12202176 -45.29052734 267.36279297 C-45.29651034 264.6705725 -45.30325865 261.97836341 -45.31088257 259.28614807 C-45.32749168 252.72650999 -45.33299213 246.16690785 -45.33410732 239.6072505 C-45.33505811 234.27279035 -45.33916996 228.93834205 -45.34550858 223.60388565 C-45.36312296 208.47132236 -45.37234747 193.33878743 -45.37084763 178.20621382 C-45.37076772 177.39050701 -45.3706878 176.5748002 -45.37060547 175.734375 C-45.37052371 174.91766886 -45.37044195 174.10096272 -45.37035771 173.25950791 C-45.36954539 160.03346161 -45.38866889 146.80752935 -45.4168822 133.58151601 C-45.44563954 119.99289737 -45.45942084 106.40433427 -45.45769465 92.81568444 C-45.45703159 85.19010169 -45.46248642 77.56463839 -45.48405075 69.9390831 C-45.50230041 63.44408793 -45.5065792 56.94926634 -45.4930319 50.45425658 C-45.48652034 47.14343378 -45.48851018 43.83301119 -45.5037384 40.52220726 C-45.51921231 36.92424911 -45.5098671 33.3271575 -45.49447632 29.72921753 C-45.50476344 28.6946586 -45.51505057 27.66009968 -45.52564943 26.59419048 C-45.44826006 18.37571204 -43.59929012 11.12301191 -39.1875 4.125 C-27.90903685 -6.83122135 -13.34646034 -8.37367253 0 0 Z " fill="#FAA954" transform="translate(394,207)"/>
<path d="M0 0 C5.94356682 6.21372895 9.87702681 12.95656129 9.87304783 21.63073349 C9.87503888 22.58966468 9.87702993 23.54859586 9.87908131 24.53658557 C9.87616847 25.58716309 9.87325563 26.63774061 9.87025452 27.72015381 C9.87153615 29.39749505 9.87153615 29.39749505 9.87284368 31.10872197 C9.87449547 34.86904691 9.86898198 38.62932759 9.86352539 42.38964844 C9.86324343 45.07986044 9.86335736 47.7700697 9.8639679 50.46028137 C9.86449244 56.25899466 9.8613529 62.0576967 9.85573006 67.85640717 C9.84760565 76.24038535 9.84499887 84.6243581 9.84374207 93.00833979 C9.84155303 106.61054341 9.83489695 120.21274104 9.82543945 133.81494141 C9.81626151 147.02880829 9.80918254 160.24267354 9.80493164 173.45654297 C9.80466892 174.27094187 9.80440619 175.08534077 9.80413551 175.92441842 C9.80283048 180.00998732 9.80156677 184.09555624 9.80032361 188.18112516 C9.78995561 222.07908779 9.77234131 255.97704316 9.75 289.875 C9.42 289.875 9.09 289.875 8.75 289.875 C8.42 205.065 8.09 120.255 7.75 32.875 C5.77 35.845 3.79 38.815 1.75 41.875 C-0.30504132 44.18845162 -2.3375472 46.37408344 -4.52961731 48.54229736 C-5.13275952 49.15082511 -5.73590172 49.75935285 -6.35732096 50.38632083 C-8.35594705 52.39911709 -10.36497428 54.40117709 -12.37426758 56.40332031 C-13.8192725 57.85403441 -15.2636477 59.30537598 -16.70744324 60.7572937 C-20.61370823 64.68144193 -24.52941409 68.59603693 -28.44748521 72.50839329 C-31.72317479 75.78098484 -34.99425202 79.05816736 -38.26537532 82.33532214 C-45.98365346 90.06762727 -53.70968175 97.79212693 -61.44067383 105.51171875 C-69.40608792 113.46564602 -77.35862683 121.43228011 -85.30489236 129.40533376 C-92.13945107 136.2620655 -98.98176095 143.11099329 -105.83034819 149.95371318 C-109.91558565 154.03558464 -113.99789193 158.12027929 -118.07282448 162.21244049 C-121.9044213 166.0595303 -125.74564308 169.89674595 -129.59437752 173.72668839 C-131.00185161 175.13048358 -132.40595507 176.53766797 -133.80633926 177.94853592 C-151.55388552 195.81872882 -151.55388552 195.81872882 -165.4375 196.25 C-173.42298205 196.18726333 -178.0199545 193.59117462 -184 188.5625 C-189.33991082 182.18427319 -192.38443255 176.74161321 -192.625 168.3125 C-192.69847656 166.57806641 -192.69847656 166.57806641 -192.7734375 164.80859375 C-191.1059402 152.27747595 -181.48421044 144.40298977 -172.96386719 135.95776367 C-171.4890226 134.477775 -170.01524999 132.99671743 -168.54246521 131.51467896 C-164.55587001 127.50962533 -160.55378906 123.52039261 -156.54812145 119.5344255 C-152.34981782 115.35255373 -148.16417261 111.158044 -143.97662354 106.96540833 C-136.94420406 99.92847325 -129.90167721 92.90177874 -122.85302734 85.88110352 C-114.71372882 77.77386041 -106.59058985 69.65069782 -98.47593379 61.51879519 C-90.65610081 53.68307789 -82.82498713 45.85872897 -74.98868561 38.03948402 C-71.65986845 34.7175243 -68.3350183 31.39166813 -65.01332855 28.06258202 C-61.09902199 24.1405932 -57.17490546 20.22868636 -53.24312019 16.32422256 C-51.80503128 14.89299786 -50.37029232 13.45839772 -48.93924522 12.02013206 C-34.27717027 -2.7073402 -19.92572095 -13.028356 0 0 Z " fill="#52A9B0" transform="translate(606.25,171.125)"/>
<path d="M0 0 C5.0251105 3.79132378 9.11330833 9.65281626 10.21484375 15.90234375 C10.38388044 18.12753168 10.48070885 20.35873194 10.52734375 22.58984375 C10.58341797 24.32814453 10.58341797 24.32814453 10.640625 26.1015625 C9.72419638 34.28215925 5.78000329 40.08402323 0.02388 45.72822571 C-0.59388756 46.35379323 -1.21165513 46.97936075 -1.84814292 47.62388486 C-3.90360265 49.69915208 -5.97630445 51.75624441 -8.04956055 53.8137207 C-9.53410304 55.30504424 -11.01758103 56.79742808 -12.50007629 58.29078674 C-16.51760686 62.33105869 -20.5507294 66.35541759 -24.58756995 70.37638497 C-28.81627378 74.59240335 -33.03273444 78.82063795 -37.25117493 83.04692078 C-44.33645862 90.14129325 -51.43220162 97.22507608 -58.53393555 104.30297852 C-66.73670845 112.47854197 -74.92131366 120.67196187 -83.09671468 128.87488967 C-90.12461252 135.92549927 -97.16223489 142.96629081 -104.20803195 149.9990136 C-108.41257465 154.1957733 -112.61369495 158.39580924 -116.80606651 162.60473061 C-120.74858248 166.56172176 -124.70319064 170.50622059 -128.66734123 174.44153404 C-130.11759928 175.88519778 -131.56365078 177.3331019 -133.00507736 178.7855835 C-134.97843578 180.77267289 -136.96666796 182.74361869 -138.95927429 184.71138 C-139.52175438 185.2850137 -140.08423447 185.8586474 -140.66375941 186.44966394 C-146.83761475 192.47579488 -153.6566889 195.47607412 -162.34765625 195.40234375 C-168.45600232 195.23113886 -172.81675652 194.47067074 -177.78515625 190.90234375 C-178.67203125 190.32484375 -179.55890625 189.74734375 -180.47265625 189.15234375 C-186.07142345 183.70489458 -188.90762101 177.80659914 -189.06835938 169.98632812 C-189.07802734 169.23673828 -189.08769531 168.48714844 -189.09765625 167.71484375 C-189.12666016 166.98458984 -189.15566406 166.25433594 -189.18554688 165.50195312 C-189.26803296 158.33835354 -186.78310159 152.8566215 -181.95708847 147.57091141 C-180.85667443 146.44880001 -179.74546853 145.33720118 -178.62542725 144.23468018 C-178.01103767 143.61405063 -177.39664809 142.99342109 -176.76364064 142.35398459 C-174.7173632 140.2918448 -172.65719855 138.24419108 -170.59667969 136.19628906 C-169.12057426 134.71475956 -167.64532028 133.23238132 -166.17085266 131.7492218 C-162.17380165 127.73396887 -158.1642412 123.73143189 -154.15174007 119.73162556 C-149.94942968 115.5394589 -145.75690648 111.33752245 -141.56280518 107.137146 C-134.51861438 100.08568283 -127.46604284 93.04268432 -120.40869141 86.00439453 C-112.25552183 77.87299273 -104.11686213 69.72728138 -95.98558974 61.57398725 C-88.99747938 54.56771132 -82.00158687 47.56927777 -74.9991591 40.57731128 C-70.81972413 36.4041048 -66.64302068 32.22826091 -62.47332001 28.04532623 C-58.55236989 24.11280162 -54.62172551 20.19022899 -50.68346214 16.27504539 C-49.24171403 14.83857571 -47.80333934 13.39871083 -46.36865425 11.95518684 C-44.40583715 9.98139727 -42.43104201 8.0204054 -40.45281982 6.06207275 C-39.89131784 5.49164788 -39.32981586 4.92122302 -38.75129867 4.33351254 C-27.64178031 -6.56119009 -13.327608 -8.19487494 0 0 Z " fill="#ED3237" transform="translate(538.78515625,326.09765625)"/>
<path d="M0 0 C5.2995884 4.43906031 10.28670637 9.09904326 15.19921875 13.9609375 C15.956689 14.710336 16.71415924 15.4597345 17.49458313 16.23184204 C19.08517571 17.80868292 20.67428029 19.38702605 22.26196289 20.96679688 C23.87990835 22.57317976 25.50232174 24.17507494 27.12915039 25.77246094 C29.49576119 28.096329 31.84877301 30.43323366 34.19921875 32.7734375 C34.9221965 33.47890717 35.64517426 34.18437683 36.39006042 34.91122437 C42.7192962 41.2677776 46.52048625 47.53354323 47.3125 56.5625 C47.15696434 64.91476504 43.63553051 72.35978196 37.93359375 78.34375 C32.15049246 83.29735596 25.74909041 85.12793689 18.25 85.3125 C16.77273438 85.36857422 16.77273438 85.36857422 15.265625 85.42578125 C12.16171964 85.02108545 10.51721481 84.38813013 7.79589844 82.97338867 C6.72634918 82.42227669 6.72634918 82.42227669 5.63519287 81.86003113 C4.8257724 81.43431572 4.8257724 81.43431572 4 81 C3.99413376 80.11796402 3.98826752 79.23592804 3.98222351 78.3271637 C3.92414806 69.98573791 3.85198687 61.64457567 3.76428509 53.30340672 C3.71969355 49.01584847 3.68041323 44.7283828 3.65356445 40.44067383 C3.62741887 36.29725526 3.58693836 32.15419507 3.53681374 28.01099968 C3.5202207 26.4359377 3.50865958 24.86081384 3.50238609 23.28567696 C3.46623312 15.03754019 3.2765856 7.72419773 0 0 Z " fill="#F58634" transform="translate(401,215)"/>
<path d="M0 0 C1.75957031 -0.02513672 1.75957031 -0.02513672 3.5546875 -0.05078125 C6.58326186 0.25737785 8.17806244 0.63145998 10.84814453 1.83520508 C11.92950684 2.3227124 13.01086914 2.81021973 14.125 3.3125 C14.13530746 4.17170044 14.14561493 5.03090088 14.15623474 5.9161377 C14.25445608 14.03702052 14.35700413 22.15783492 14.46433926 30.2786026 C14.51936262 34.45296238 14.57274811 38.62732938 14.62231445 42.80175781 C14.67026366 46.8348101 14.72261456 50.86778399 14.77794075 54.90074158 C14.79822677 56.43478935 14.81696124 57.96885849 14.83407402 59.50294495 C14.93977929 70.44588803 14.93977929 70.44588803 16.125 81.3125 C11.15029472 77.13104882 6.42214625 72.79368986 1.80078125 68.2265625 C1.13209518 67.56594818 0.46340912 66.90533386 -0.22554016 66.22470093 C-1.62781035 64.83616673 -3.0286047 63.44614064 -4.42797852 62.0546875 C-5.85191706 60.64231245 -7.28032246 59.23442675 -8.71313477 57.83105469 C-10.80178866 55.78520206 -12.87675089 53.72629552 -14.94921875 51.6640625 C-15.9024427 50.73710068 -15.9024427 50.73710068 -16.87492371 49.79141235 C-21.98894469 44.65236171 -26.16961516 38.71904087 -26.875 31.3125 C-26.96136719 30.61769531 -27.04773438 29.92289062 -27.13671875 29.20703125 C-27.68606441 21.52839972 -25.20436306 15.59449415 -20.875 9.3125 C-14.71098961 3.09441935 -8.80689172 0.02890665 0 0 Z " fill="#01A859" transform="translate(545.875,387.6875)"/>
</svg>
