<?xml version="1.0" encoding="UTF-8"?>
<svg version="1.1" xmlns="http://www.w3.org/2000/svg" width="1002" height="718">
<path d="M0 0 C330.66 0 661.32 0 1002 0 C1002 236.94 1002 473.88 1002 718 C671.34 718 340.68 718 0 718 C0 481.06 0 244.12 0 0 Z " fill="#9840BC" transform="translate(0,0)"/>
<path d="M0 0 C202.95 0 405.9 0 615 0 C615 31.68 615 63.36 615 96 C602.79 97.98 590.58 99.96 578 102 C576.515 102.495 576.515 102.495 575 103 C573.67345361 103.18741304 572.34160702 103.33898211 571.0078125 103.46484375 C570.21890625 103.54283203 569.43 103.62082031 568.6171875 103.70117188 C566.99481064 103.85501796 565.37241572 104.00867368 563.75 104.16210938 C559.14973506 104.61695872 554.60601702 105.20912153 550.04394531 105.95898438 C543.03947495 107.04639489 536.04056687 107.69717242 528.9765625 108.25390625 C527.67335052 108.35968491 526.37013855 108.46546356 525.0274353 108.57444763 C522.28300965 108.79673025 519.53834669 109.01570242 516.79345703 109.23217773 C513.34977991 109.50398865 509.90680847 109.78378804 506.46395588 110.06582546 C477.81019812 112.40792765 449.30271412 113.2793894 420.5625 113.3125 C419.69067455 113.31365059 418.81884911 113.31480118 417.92060471 113.31598663 C321.39018513 113.40402016 219.369427 107.15788114 118.94726562 70.74804688 C117.13222286 70.05079374 115.30857636 69.37605261 113.484375 68.703125 C105.10352113 65.58560931 97.03300408 61.91193519 89 58 C88.03271973 57.52997559 87.06543945 57.05995117 86.06884766 56.57568359 C55.65508963 41.73710523 24.65065318 24.5850747 0 1 C0 0.67 0 0.34 0 0 Z " fill="#FCC261" transform="translate(387,0)"/>
<path d="M0 0 C1.91776822 0.26291984 3.83415463 0.53591669 5.75 0.8125 C6.81734375 0.96332031 7.8846875 1.11414063 8.984375 1.26953125 C12.19498929 1.793749 15.2934641 2.58384898 18.43774414 3.4152832 C24.91683015 5.04642996 31.40410058 6.1253347 38.01171875 7.0859375 C39.84938057 7.35905006 39.84938057 7.35905006 41.72416687 7.63768005 C45.71069447 8.22580075 49.69871342 8.80246264 53.6875 9.375 C54.37469368 9.474035 55.06188736 9.57306999 55.76990509 9.67510605 C82.45045646 13.51818823 109.13021176 16.78430474 136 19 C137.70703094 19.14405273 137.70703094 19.14405273 139.44854736 19.29101562 C186.98673259 23.28167034 234.32742027 23.47837462 282 23 C282.2310435 24.9648234 282.462087 26.92964681 282.69313049 28.89447021 C283.33635394 33.30783194 284.73653171 37.55004961 285.96484375 41.828125 C288.89093255 53.08541953 289.4433862 64.12464257 289.4375 75.6875 C289.43790283 76.50025391 289.43830566 77.31300781 289.4387207 78.15039062 C289.31781995 120.67410321 272.02106837 158.62442782 242.3203125 188.71484375 C208.63049014 220.35528523 166.87403276 232.55804512 121.45947266 231.17285156 C114.42967725 230.82160984 107.82922297 229.71281911 101 228 C99.75089844 227.70996094 98.50179687 227.41992188 97.21484375 227.12109375 C75.08411389 221.65134769 56.13742908 211.69099563 38 198 C37.21367188 197.45214844 36.42734375 196.90429688 35.6171875 196.33984375 C35.08351563 195.89769531 34.54984375 195.45554687 34 195 C34 194.34 34 193.68 34 193 C33.10486694 192.58947388 33.10486694 192.58947388 32.19165039 192.1706543 C9.7801615 180.19971866 -6.21227865 146.22722972 -13.57421875 123.31640625 C-14.68497672 119.60988127 -15.64112877 115.87853857 -16.51220703 112.10888672 C-16.96763386 110.13992929 -17.46469431 108.18073119 -17.96484375 106.22265625 C-25.8807674 70.29092909 -18.19067262 31.47275104 0 0 Z " fill="#CB7EA9" transform="translate(565,89)"/>
<path d="M0 0 C0.81914886 0.00021149 1.63829773 0.00042297 2.48226929 0.00064087 C15.06471241 0.03306311 26.86051879 0.83732375 39 4.375 C39.69206543 4.56223633 40.38413086 4.74947266 41.09716797 4.94238281 C79.77090325 15.42311894 114.27822707 41.14971715 134.45751953 75.88378906 C146 96.68483768 146 96.68483768 146 102.375 C68.67927964 103.17348346 -7.35453197 99.48780448 -84 88.375 C-85.08960022 88.21954712 -86.17920044 88.06409424 -87.30181885 87.90393066 C-103.1134483 85.62519495 -118.52803744 82.34696621 -134 78.375 C-133.21153106 76.93825664 -132.42091153 75.50269336 -131.62939453 74.06762695 C-130.96932907 72.86829277 -130.96932907 72.86829277 -130.29592896 71.64472961 C-124.69061205 61.82740612 -116.75189037 53.51278242 -109 45.375 C-108.29488281 44.60542969 -107.58976563 43.83585937 -106.86328125 43.04296875 C-86.7998288 21.8330333 -58.26760714 8.3295191 -30 2.375 C-29.20335937 2.20436035 -28.40671875 2.0337207 -27.5859375 1.85791016 C-18.39561962 0.09041961 -9.32324156 -0.02218953 0 0 Z " fill="#F9BD79" transform="translate(699,10.625)"/>
<path d="M0 0 C4.38773175 2.19386588 7.09334197 4.44520582 9 9 C9.53964014 13.24002966 9.32167905 15.39238402 7.3125 19.1875 C3.76667688 23.49998758 1.79672195 25.73918552 -3.875 26.5625 C-8.49000691 26.32650533 -11.81298427 24.27315129 -15 21 C-17.55196979 16.82949903 -17.94510252 12.76555929 -17 8 C-12.69516092 0.88248999 -8.11521367 -0.98366226 0 0 Z " fill="#FCFAFD" transform="translate(195,571)"/>
<path d="M0 0 C3.42484369 2.28322912 4.97163392 4.19326784 6.8125 7.875 C7.68409882 13.86724187 6.20703687 17.10429953 2.8125 21.875 C-0.60499305 24.81784124 -3.68007938 25.41860033 -8.1953125 25.22265625 C-11.61491551 24.625902 -13.61950379 23.144392 -16.1875 20.875 C-19.097872 16.509442 -19.8381249 13.07999921 -19.1875 7.875 C-14.90138553 -0.37973899 -8.93720649 -3.15430817 0 0 Z " fill="#FCFBFD" transform="translate(314.1875,676.125)"/>
<path d="M0 0 C3.99979694 3.36346561 5.56364901 5.57322408 6.125 10.8125 C5.52642575 16.39919296 2.91195039 19.67079341 -1.25 23.3125 C-4.86930698 24.51893566 -7.44231005 24.63518559 -11.25 24.3125 C-15.58729795 22.06044145 -18.38397371 19.8738976 -20.25 15.3125 C-20.84255496 11.26337441 -20.67788339 8.22939298 -18.9375 4.5 C-13.9781572 -1.9287777 -7.74627943 -4.02210663 0 0 Z " fill="#FCFAFD" transform="translate(198.25,676.6875)"/>
<path d="M0 0 C3.19057334 1.62122629 5.21621057 3.96682303 7.375 6.8125 C8.37369636 10.30793727 8.76551496 13.45619369 8 17 C5.49359575 21.17462785 2.50848446 24.11106975 -2 26 C-5.97268846 26.51817676 -7.6667194 26.1895125 -11.1875 24.1875 C-16.7 19.9 -16.7 19.9 -18 16 C-18.78580372 9.26453953 -18.78580372 9.26453953 -16.73046875 5.95703125 C-11.74095652 0.06916402 -7.71549752 -1.06502266 0 0 Z " fill="#FCFBFD" transform="translate(313,467)"/>
<path d="M0 0 C4.38773175 2.19386588 7.09334197 4.44520582 9 9 C9.53715295 14.01342749 9.12527558 17.01257943 6 21 C2.54844376 24.03063475 0.35863989 25.86936155 -4.25 26.3125 C-8.73703832 25.93858014 -10.61031378 24.92745628 -14 22 C-17.09705551 17.70408429 -17.41634453 14.2693928 -16.65234375 9.1875 C-15.57124277 5.56225119 -13.69409757 3.62838787 -11 1 C-7.5259169 -0.73704155 -3.79843331 -0.46041616 0 0 Z " fill="#FCFBFD" transform="translate(312,571)"/>
<path d="M0 0 C3.51448234 2.47611256 5.2299691 4.94101427 6.75 8.9375 C7.40775179 12.96622971 6.97587573 14.52608349 5 18.125 C1.69153037 22.26058704 -0.39165249 23.98086023 -5.625 24.875 C-9.1724081 25.16089309 -10.27104516 24.92736715 -13.625 23.3125 C-17.63841271 19.68131707 -19.39910842 16.97333648 -19.8125 11.5625 C-19.67997799 6.9008433 -17.91485044 4.54430046 -14.7578125 1.25 C-10.4970993 -2.45880734 -5.012102 -1.63857181 0 0 Z " fill="#FCFBFD" transform="translate(80.25,572.0625)"/>
<path d="M0 0 C4.38773175 2.19386588 7.09334197 4.44520582 9 9 C9.54700764 13.29791716 9.31502266 15.41495791 7.25 19.25 C4.54861856 22.55168843 2.68348471 24.72150998 -1.62109375 25.43359375 C-9.19404591 25.44409715 -9.19404591 25.44409715 -13.0625 23.3125 C-16.49498574 19.21566218 -17.56353462 15.4732745 -17.4609375 10.06640625 C-16.59891919 6.20193435 -13.88597483 3.57943346 -11 1 C-7.5259169 -0.73704155 -3.79843331 -0.46041616 0 0 Z " fill="#FDFBFD" transform="translate(195,467)"/>
<path d="M0 0 C3.49509966 1.66498842 5.47156368 4.06322652 7.375 7.4375 C8.51376089 12.10641966 8.59999457 14.86667693 6.3125 19.1875 C3.45021349 22.66865927 1.42797383 24.54732691 -3.07421875 25.38671875 C-7.68716774 25.73915119 -10.39880657 25.16626493 -14 22.1875 C-17.31521019 19.07949045 -17.9359821 16.78101841 -18.3125 12.1875 C-18.26435467 7.83034762 -16.80463186 5.36555823 -14 2 C-9.53207462 -0.97861692 -5.23639444 -0.73309522 0 0 Z " fill="#FDFBFD" transform="translate(196,259)"/>
<path d="M0 0 C3.88869298 1.99196314 6.39478275 4.95695281 8 9 C8.24137178 13.49756077 7.55333627 17.10321363 5.1875 20.9375 C1.07075752 24.81900005 -2.30306752 25.39484962 -7.81640625 25.25 C-11.99833502 24.7712103 -14.15037226 22.99611528 -16.8125 19.875 C-18.48087822 15.83576852 -18.69030273 12.30870276 -18 8 C-13.99147363 0.12610891 -8.40643137 -1.31267619 0 0 Z " fill="#FDFBFD" transform="translate(79,259)"/>
<path d="M0 0 C3.98129682 2.25464121 6.54722828 4.64168485 8 9 C8.53923825 14.71592544 7.63434458 17.55802329 4 22 C0.24224519 25.34288591 -2.54502084 25.62287666 -7.453125 25.4921875 C-11.65347571 24.68046328 -14.3754082 22.29879887 -17 19 C-18.2517847 15.24464589 -18.77373976 11.88289586 -18 8 C-13.4671126 0.70553812 -8.46663728 -1.36477138 0 0 Z " fill="#FDFCFD" transform="translate(313,363)"/>
<path d="M0 0 C3.32254013 1.25403266 6.21068762 2.75927486 8.16796875 5.8359375 C9.70375319 9.8304191 9.66175488 13.80447404 9 18 C7.0897767 21.60003622 4.37739883 23.74840078 1 26 C-3.75175157 26.4673854 -6.03586856 26.4911613 -10.3125 24.3125 C-13.68067583 21.41430219 -15.6064014 19.36159162 -16.3515625 14.890625 C-16.61904035 10.69544604 -16.384361 7.88672746 -13.6875 4.5625 C-9.25923701 0.34020273 -6.04007929 -0.90711814 0 0 Z " fill="#FDFCFD" transform="translate(77,675)"/>
<path d="M0 0 C3.74394623 1.80264078 5.55319676 3.36582765 7.9375 6.75 C9.24970514 10.76380395 9.32017027 14.02367877 8 18 C6.16831486 20.9549485 4.1633409 23.41832955 1 25 C-4.11664964 25.50260166 -8.52821374 25.84102072 -13.0625 23.25 C-16.61301862 19.12681708 -17.54974555 15.6971059 -17.4609375 10.32421875 C-16.65549538 6.26287923 -14.05462619 3.65894922 -11 1 C-7.52326295 -0.73836852 -3.80129202 -0.45436319 0 0 Z " fill="#FDFCFD" transform="translate(78,467)"/>
<path d="M0 0 C3.8957354 1.97954034 6.38712244 4.96405521 8 9 C8.33693067 13.75158639 7.60431517 17.77422639 4.5625 21.5 C1.23063024 24.75060465 -0.28466076 25.16853962 -4.8125 25.25 C-9.04415503 25.18902514 -11.7578874 24.94737509 -15 22 C-17.57054568 18.18850123 -18.64785885 14.67347645 -18.49609375 10.03125 C-17.56122422 6.20343775 -14.87712858 3.57152684 -12 1 C-8.27083603 -0.86458199 -4.06038696 -0.56048286 0 0 Z " fill="#FDFCFD" transform="translate(196,363)"/>
<path d="M0 0 C3.42717689 2.02543067 6.20750852 4.41501704 8 8 C8.39231417 12.70777 8.47336758 15.07079697 6.3125 19.3125 C3.41430219 22.68067583 1.36159162 24.6064014 -3.109375 25.3515625 C-7.30455396 25.61904035 -10.11327254 25.384361 -13.4375 22.6875 C-16.66821205 19.29919224 -17.93100884 17.85549036 -18.3125 13.125 C-18.16362165 8.04452614 -16.27384704 5.42825274 -12.9375 1.6875 C-8.63517908 -0.78404606 -4.84018777 -1.02374112 0 0 Z " fill="#FDFCFE" transform="translate(313,259)"/>
<path d="M0 0 C3.8026029 2.0050088 5.61790841 3.42686262 8 7 C8.65192402 11.37132214 9.00981874 15.99201428 6.984375 20.01953125 C4.36665538 23.26014198 2.09965521 24.75604006 -2.05078125 25.23828125 C-7.55326265 25.41884627 -10.69893505 24.77654483 -15 21 C-17.58012035 16.78521435 -17.55092407 12.8119774 -17 8 C-15.699544 4.85152757 -14.4485648 3.38259939 -11.875 1.1875 C-7.83934715 -0.47940009 -4.30510495 -0.69730573 0 0 Z " fill="#FDFCFE" transform="translate(78,363)"/>
</svg>
