<?xml version="1.0" encoding="UTF-8"?>
<svg version="1.1" xmlns="http://www.w3.org/2000/svg" width="944" height="524">
<path d="M0 0 C311.52 0 623.04 0 944 0 C944 172.92 944 345.84 944 524 C632.48 524 320.96 524 0 524 C0 351.08 0 178.16 0 0 Z " fill="#FEFEFE" transform="translate(0,0)"/>
<path d="M0 0 C4.80743993 3.79152533 9.47701664 7.7482901 14 11.875 C10.51524094 11.875 9.56927421 11.1674908 6.6875 9.3125 C-22.90148052 -8.80755291 -60.13569738 -16.57118277 -94.40625 -9.29296875 C-120.60338691 -2.95965913 -142.52480295 8.25248233 -162 26.875 C-162.68449219 27.49632812 -163.36898437 28.11765625 -164.07421875 28.7578125 C-170.09009021 34.40729494 -174.54673573 40.98610563 -179 47.875 C-179.63164062 48.84566406 -180.26328125 49.81632812 -180.9140625 50.81640625 C-196.20251686 75.56753832 -199.43484175 105.78113477 -193.2578125 133.86328125 C-185.78441565 164.97085148 -166.03153083 190.30768754 -139.06542969 207.078125 C-108.17181057 225.85510515 -70.44220834 232.10586666 -35.04296875 224.19921875 C-18.38869794 220.03004301 -1.82865689 213.12238934 12 202.875 C12.66 203.205 13.32 203.535 14 203.875 C-2.81512163 219.91523123 -22.39126962 231.91330398 -44.83203125 238.2578125 C-46.22826 238.65529744 -47.619585 239.07065842 -49.00390625 239.5078125 C-59.74200038 242.88081225 -70.45425585 243.26520416 -81.625 243.3125 C-82.66105881 243.32189606 -82.66105881 243.32189606 -83.7180481 243.33148193 C-115.62472198 243.51432277 -145.8759319 231.67547358 -170 210.875 C-170.95648438 210.06417969 -171.91296875 209.25335938 -172.8984375 208.41796875 C-193.39198184 190.63393133 -207.17382253 165.9758685 -214 139.875 C-214.3196875 138.70710937 -214.639375 137.53921875 -214.96875 136.3359375 C-219.43350005 117.03002757 -218.54319987 95.10848644 -214 75.875 C-213.76651855 74.88282471 -213.76651855 74.88282471 -213.52832031 73.87060547 C-209.07819206 55.96794382 -200.34785948 39.31430292 -189 24.875 C-188.36835938 24.01132813 -187.73671875 23.14765625 -187.0859375 22.2578125 C-178.14443583 10.34849325 -166.54653919 0.76354261 -154 -7.125 C-152.91332031 -7.81207031 -151.82664062 -8.49914062 -150.70703125 -9.20703125 C-104.5113415 -37.00950045 -42.63104589 -32.9638996 0 0 Z " fill="#030303" transform="translate(330,141.125)"/>
<path d="M0 0 C1.60784363 -0.01142029 1.60784363 -0.01142029 3.24816895 -0.02307129 C5.51763587 -0.03386846 7.78715248 -0.03672696 10.05664062 -0.03222656 C13.49175619 -0.0312611 16.92458569 -0.07274658 20.359375 -0.1171875 C36.01892554 -0.20423891 48.15974001 0.59105165 59.93359375 12.05859375 C68.11083804 21.45404948 68.86492415 31.28905305 68.27978516 43.31054688 C67.83073805 47.20993435 66.28575364 50.24364165 64.22265625 53.5234375 C62.97024118 55.5683644 62.31251616 57.08768649 62.03125 59.46875 C63.33333796 61.48923131 64.67113391 63.48686655 66.03125 65.46875 C68.99787668 73.89148031 69.7950797 85.33274259 66.96875 93.96875 C62.42780006 103.43259894 54.89066169 110.81801837 45.125 114.6171875 C35.74487779 117.63918745 25.95657038 116.9286077 16.21875 116.78125 C14.26107722 116.76973523 12.30339341 116.75995703 10.34570312 116.75195312 C8.46352992 116.7385364 6.58136671 116.72361546 4.69921875 116.70703125 C3.39902046 116.69595085 3.39902046 116.69595085 2.07255554 116.68464661 C-11.97225651 116.46524349 -11.97225651 116.46524349 -16.96875 111.46875 C-20.58790172 106.86557464 -20.40148706 102.69693941 -20.37280273 97.09204102 C-20.37966599 96.15485229 -20.38652924 95.21766357 -20.39360046 94.2520752 C-20.411879 91.15878077 -20.40802937 88.06599302 -20.40234375 84.97265625 C-20.40690506 82.81941055 -20.41221048 80.66616631 -20.41822815 78.51292419 C-20.42716135 74.00131311 -20.42473368 69.48987901 -20.41479492 64.97827148 C-20.4033055 59.20000585 -20.42351565 53.42235134 -20.45271206 47.64416599 C-20.47106843 43.19772976 -20.47078268 38.75144013 -20.46507454 34.30497551 C-20.46492125 32.17474447 -20.4709715 30.04450354 -20.48336601 27.91430855 C-20.49826308 24.93410154 -20.4876079 21.95502542 -20.47045898 18.97485352 C-20.48496094 17.65846138 -20.48496094 17.65846138 -20.49975586 16.31547546 C-20.43432057 10.87794722 -19.5680836 7.79484669 -15.96875 3.46875 C-11.37923807 -0.63445603 -5.83111428 0.00114349 0 0 Z " fill="#E58A2D" transform="translate(436.96875,142.53125)"/>
<path d="M0 0 C0 35.64 0 71.28 0 108 C17.17337522 96.9572209 17.17337522 96.9572209 31 82 C29.66667905 78.00003714 27.5042173 77.16217663 24 75 C26.61380244 71.88456453 29.61322338 70.66485452 33.3125 69.08203125 C33.92262939 68.81992355 34.53275879 68.55781586 35.16137695 68.2877655 C36.44756315 67.73725223 37.73528258 67.19030907 39.02441406 66.64672852 C40.99706055 65.81374124 42.96354658 64.96735209 44.9296875 64.11914062 C46.18194774 63.58513027 47.43454108 63.05190022 48.6875 62.51953125 C49.82574219 62.03589111 50.96398437 61.55225098 52.13671875 61.05395508 C55 60 55 60 58 60 C57.51188749 72.42117878 56.64418311 84.67660816 55 97 C51.7 95.02 48.4 93.04 45 91 C44.01 92.98 44.01 92.98 43 95 C40.83543479 97.8163945 38.40976083 100.39242298 36 103 C35.2884375 103.78890625 34.576875 104.5778125 33.84375 105.390625 C14.94733905 125.42082061 -14.05943879 137.19689153 -41.3125 138.3203125 C-55.33812042 138.66327877 -68.44723259 137.65286865 -82 134 C-83.06476563 133.72285156 -84.12953125 133.44570313 -85.2265625 133.16015625 C-109.18080766 126.00027857 -127.83867628 111.63802716 -145 94 C-144.505 93.01 -144.505 93.01 -144 92 C-143.319375 92.61746094 -142.63875 93.23492187 -141.9375 93.87109375 C-136.30328111 98.79354297 -130.65391304 103.07668631 -124.125 106.75 C-123.2278125 107.2593811 -123.2278125 107.2593811 -122.3125 107.77905273 C-115.77355174 111.34349773 -108.86149505 114.12606274 -102 117 C-102.03410477 116.32729568 -102.06820953 115.65459137 -102.10334778 114.96150208 C-102.43994071 107.9038352 -102.62519766 100.85320851 -102.72631836 93.78833008 C-102.78329215 91.15994997 -102.8777251 88.53208723 -103.01147461 85.90649414 C-104.05729842 64.63871809 -104.05729842 64.63871809 -98.8817749 58.47894287 C-93.5593789 54.03351349 -85.24244408 48 -78 48 C-78 72.75 -78 97.5 -78 123 C-72.72 123.33 -67.44 123.66 -62 124 C-62.10997314 121.56947266 -62.21994629 119.13894531 -62.33325195 116.63476562 C-62.68337033 108.546308 -62.91398953 100.45748698 -63.08805561 92.36342621 C-63.19707097 87.46098393 -63.34441957 82.5663825 -63.58422852 77.66845703 C-65.09466183 46.02597656 -65.09466183 46.02597656 -59.90325928 37.59472656 C-54.63299801 31.87813482 -48.29234653 27.71439168 -41 25 C-40.34 25 -39.68 25 -39 25 C-39 57.01 -39 89.02 -39 122 C-35.37 121.01 -31.74 120.02 -28 119 C-26.68 119 -25.36 119 -24 119 C-24.02442673 117.78192657 -24.04885345 116.56385315 -24.07402039 115.30886841 C-24.29744515 103.80436847 -24.4621085 92.30031107 -24.56993389 80.79413033 C-24.62723476 74.87908324 -24.70489173 68.96579348 -24.82983398 63.05175781 C-24.94975691 57.33926127 -25.01520811 51.62844967 -25.04364967 45.91479111 C-25.0639047 43.7401566 -25.10346185 41.56560977 -25.16303062 39.39169693 C-25.63448281 21.46609898 -25.63448281 21.46609898 -21.63613892 16.51629639 C-18.87971001 13.98369473 -16.15672332 11.99698289 -13 10 C-11.47855344 8.71242219 -9.97368182 7.40448291 -8.5 6.0625 C-7.8915625 5.53785156 -7.283125 5.01320312 -6.65625 4.47265625 C-4.9638578 3.01146552 -4.9638578 3.01146552 -3.40625 1.30859375 C-2 0 -2 0 0 0 Z " fill="#E08C35" transform="translate(295,177)"/>
<path d="M0 0 C0.74765625 -0.02578125 1.4953125 -0.0515625 2.265625 -0.078125 C6.67695218 0.50450312 9.80776316 2.2749747 12.8828125 5.45703125 C13.54023437 6.31683594 14.19765625 7.17664063 14.875 8.0625 C15.64070312 9.03832031 16.40640625 10.01414063 17.1953125 11.01953125 C17.60426758 11.54240723 18.01322266 12.0652832 18.43457031 12.60400391 C20.79247425 15.55444717 23.2773941 18.39566943 25.75 21.25 C30.22251812 26.42609217 34.56611839 31.67869501 38.8125 37.04296875 C40.64866279 39.13456547 42.46126071 40.68160053 44.75 42.25 C45.1529126 41.37625732 45.1529126 41.37625732 45.56396484 40.48486328 C46.76357241 38.22442532 48.08672283 36.45204498 49.7265625 34.4921875 C50.31091064 33.78908447 50.89525879 33.08598145 51.49731445 32.36157227 C52.11695068 31.62350342 52.73658691 30.88543457 53.375 30.125 C54.65293803 28.59033842 55.93028552 27.05518489 57.20703125 25.51953125 C57.82143066 24.7817041 58.43583008 24.04387695 59.06884766 23.28369141 C61.10381523 20.82198941 63.08839327 18.32317935 65.0625 15.8125 C75.91922254 2.16538873 75.91922254 2.16538873 79.75 0.25 C83.96019538 -0.18011819 87.63692855 -0.2199635 91.5625 1.4375 C97.38355024 6.26065591 97.38355024 6.26065591 98.12184143 10.26861382 C98.27100494 12.79028033 98.29034638 15.28425784 98.26757812 17.81030273 C98.2745874 18.7669986 98.28159668 19.72369446 98.28881836 20.7093811 C98.30640447 23.86774841 98.29477214 27.02521753 98.28125 30.18359375 C98.28394495 32.38168001 98.28782739 34.57976511 98.29284668 36.77784729 C98.29874277 41.3836706 98.29017576 45.98918349 98.27148438 50.5949707 C98.24870851 56.49432594 98.26180903 62.39295271 98.28577423 68.29228115 C98.30024047 72.83137991 98.29562212 77.37030648 98.28526306 81.90941048 C98.28259738 84.08429107 98.28585993 86.25918736 98.29518127 88.43404961 C98.30535863 91.47655399 98.28982778 94.51788553 98.26757812 97.56030273 C98.27567505 98.45659897 98.28377197 99.3528952 98.29211426 100.27635193 C98.21817194 105.74385823 97.43160808 108.93605125 93.75 113.25 C89.38852341 116.15765106 85.94862383 116.97963142 80.75 116.25 C75.49731815 113.71571639 72.90175316 110.69773616 70.75 105.25 C70.28115067 101.33867309 70.26147146 97.44400728 70.23828125 93.5078125 C70.22033005 92.38430389 70.20237885 91.26079529 70.18388367 90.10324097 C70.12985386 86.52719841 70.09590754 82.95128881 70.0625 79.375 C70.02932056 76.94529403 69.99483033 74.51560559 69.95898438 72.0859375 C69.87413146 66.14074422 69.80575044 60.19553358 69.75 54.25 C67.9849975 56.31865074 66.22233123 58.38921757 64.4609375 60.4609375 C63.96456787 61.04222412 63.46819824 61.62351074 62.95678711 62.22241211 C60.2952702 65.35659675 57.75060309 68.51427091 55.375 71.875 C53.14173275 74.88229737 51.34399195 76.88086021 47.75 78.25 C41.41140938 78.95428785 38.92076275 78.23686286 33.75 74.25 C31.42910079 71.89967354 29.30476006 69.40872936 27.1875 66.875 C26.63642578 66.22789062 26.08535156 65.58078125 25.51757812 64.9140625 C22.23359274 61.04963367 18.9957431 57.14654193 15.75 53.25 C15.74635437 53.88591568 15.74270874 54.52183136 15.73895264 55.17701721 C15.69705144 61.8124713 15.62765199 68.44723862 15.54248047 75.08227539 C15.51430368 77.55648928 15.49307285 80.03079263 15.47900391 82.50512695 C15.45752978 86.06768487 15.41085325 89.62917083 15.359375 93.19140625 C15.35814636 94.29271378 15.35691772 95.3940213 15.35565186 96.52870178 C15.23348056 102.9756708 14.57288272 106.995228 10.75 112.25 C7.84974679 114.89201149 4.62583963 116.10402673 0.75 116.75 C-4.07888483 115.94518586 -7.7609006 114.13189635 -10.82359314 110.26132202 C-12.82305196 106.04021615 -12.6927907 102.32248005 -12.68579102 97.70556641 C-12.69586685 96.75047684 -12.70594269 95.79538727 -12.71632385 94.81135559 C-12.74479156 91.65797176 -12.7506798 88.50506679 -12.75390625 85.3515625 C-12.76354799 83.15587162 -12.77364052 80.96018268 -12.78416443 78.76449585 C-12.80212272 74.16293876 -12.80768574 69.56155059 -12.8059082 64.95996094 C-12.80560334 59.06947669 -12.84656364 53.18007735 -12.89822483 47.28985023 C-12.93161433 42.75500534 -12.93766498 38.220422 -12.93607903 33.68546677 C-12.93961482 31.51416661 -12.95286032 29.34285937 -12.97607613 27.17168045 C-13.00554202 24.13142598 -12.99682225 21.09351658 -12.97875977 18.05322266 C-12.99561829 17.1605217 -13.01247681 16.26782074 -13.02984619 15.34806824 C-12.94376396 9.63319297 -11.70135244 6.6730876 -7.73219204 2.5342617 C-5.17370207 0.31742974 -3.30557669 0.06746075 0 0 Z " fill="#E58A2D" transform="translate(547.25,142.75)"/>
<path d="M0 0 C22.17020286 18.29306086 39.48908575 43.85357089 42.68359375 73.0078125 C44.30266064 90.7678328 43.45049648 107.31753683 38.125 124.375 C37.75246094 125.57253906 37.37992188 126.77007812 36.99609375 128.00390625 C32.2616115 141.44851612 24.75065186 153.89820529 15.125 164.375 C14.68317383 164.8592041 14.24134766 165.3434082 13.78613281 165.84228516 C-5.44831101 186.68963815 -32.36553681 200.48084665 -60.85717773 202.59643555 C-92.98100931 203.84105157 -122.78165734 195.37759805 -146.875 173.375 C-147.535 172.385 -148.195 171.395 -148.875 170.375 C-145.34744439 171.67287423 -142.13547889 173.2971817 -138.86376953 175.14208984 C-113.68401593 189.26570852 -81.92080554 192.93835567 -53.99755859 185.57348633 C-37.12432397 180.73760066 -22.66843663 173.24747358 -8.875 162.375 C-8.2665625 161.9109375 -7.658125 161.446875 -7.03125 160.96875 C10.4353649 147.21843614 22.48975917 123.27385127 25.125 101.375 C26.65442253 73.29974803 20.66044747 49.15779948 2.125 27.375 C1.32835937 26.35986328 1.32835937 26.35986328 0.515625 25.32421875 C-14.66241471 6.57708554 -42.83434064 -6.80086457 -66.44848633 -9.43530273 C-94.43709029 -11.62336444 -121.08398851 -8.42871325 -144.95703125 7.30859375 C-146.875 8.375 -146.875 8.375 -149.875 8.375 C-135.60908464 -5.57643626 -118.28057648 -15.66452128 -98.875 -20.625 C-97.79605469 -20.9240625 -96.71710938 -21.223125 -95.60546875 -21.53125 C-62.64516885 -29.52162573 -26.61890675 -20.37073893 0 0 Z " fill="#E58A2E" transform="translate(339.875,159.625)"/>
<path d="M0 0 C0.91966553 0.46599609 0.91966553 0.46599609 1.85791016 0.94140625 C14.52389801 7.43515222 14.52389801 7.43515222 17 13 C17.88982328 17.29046576 17.98653314 21.32560889 15.72265625 25.16796875 C13.20085384 28.15837015 11.09050623 30.61990796 7.109375 31.34375 C-0.30977254 31.83508427 -5.67276669 29.0955018 -11.99609375 25.62890625 C-16.15902992 23.37150133 -19.19284684 22.82005715 -23.875 22.75 C-24.90367187 22.72421875 -25.93234375 22.6984375 -26.9921875 22.671875 C-30.42476414 23.04633791 -32.26725081 23.91720197 -35 26 C-35.88658466 28.59122743 -35.88658466 28.59122743 -36 31 C-31.0476532 34.81877391 -26.56196768 36.04002202 -20.5 37.3125 C-6.11738501 40.64529725 7.50466386 46.32951164 15.9375 59.125 C20.66317731 67.01806676 21.32752291 75.80786295 19.41796875 84.71484375 C16.18003429 94.073805 9.17817568 101.48175399 0.43359375 105.96484375 C-0.36949219 106.30644531 -1.17257812 106.64804688 -2 107 C-3.15628906 107.52980469 -4.31257812 108.05960937 -5.50390625 108.60546875 C-11.02352106 110.63799707 -16.56028792 110.43744918 -22.375 110.375 C-23.4475 110.38660156 -24.52 110.39820313 -25.625 110.41015625 C-39.95904626 110.35784221 -51.73554463 105.19263615 -62.44140625 95.7109375 C-66.21801145 91.56519043 -66.3775677 87.8278771 -66.25 82.40625 C-65.80144283 78.0888872 -64.11461492 75.97951008 -60.9375 73.1875 C-56.59727442 71.43294072 -52.61627915 71.32462797 -48 72 C-44.6875 73.75 -44.6875 73.75 -42 76 C-35.85006474 81.09994632 -31.39784835 82.34653713 -23.5625 82.3125 C-22.45551758 82.33666992 -22.45551758 82.33666992 -21.32617188 82.36132812 C-16.50371321 82.36561475 -13.16434599 81.68212114 -9 79 C-7.6740144 76.62116511 -7.6740144 76.62116511 -8 74 C-13.53817793 67.39727528 -22.41339218 66.1186695 -30.4375 64.125 C-41.46330648 61.24529241 -53.36674182 56.59854341 -59.5625 46.4375 C-64.22308017 37.32818422 -65.5269974 28.81199013 -62.875 18.75 C-59.52836371 9.03697189 -52.65040996 3.36620168 -44.0625 -1.75 C-29.9912549 -7.49336535 -13.41001219 -6.9298945 0 0 Z " fill="#E58A2D" transform="translate(741,148)"/>
<path d="M0 0 C1.05380859 0.01353516 1.05380859 0.01353516 2.12890625 0.02734375 C10.41753099 0.30312054 15.43346106 2.61153696 21.4375 8.1875 C28.39927392 15.78847871 29.77384858 21.46895265 29.43359375 31.8828125 C28.65585934 40.84152529 24.79694261 46.42818183 18.125 52.4375 C10.55894555 58.16532291 2.34497415 58.65954399 -6.875 57.4375 C-13.91089109 55.31363394 -19.32632405 51.14445948 -23.875 45.4375 C-24.30941406 44.89996094 -24.74382813 44.36242187 -25.19140625 43.80859375 C-29.46172273 37.15761303 -28.89357514 28.02541752 -27.875 20.4375 C-25.8410849 13.05167007 -21.25305466 7.59758064 -14.875 3.4375 C-9.86682196 0.88548583 -5.57303534 -0.08590421 0 0 Z " fill="#040404" transform="translate(620.875,297.5625)"/>
<path d="M0 0 C0.66 0 1.32 0 2 0 C2.18696714 13.86444513 2.32746341 27.72869455 2.41449738 41.59414196 C2.45626763 48.03236262 2.5129324 54.46973711 2.60351562 60.9074707 C2.69037166 67.11911149 2.73826028 73.32993794 2.75901794 79.54213905 C2.77381223 81.91335182 2.80270273 84.28451946 2.84584045 86.65538597 C2.90383734 89.97460964 2.91191645 93.29045948 2.90820312 96.61010742 C2.95134644 98.08393639 2.95134644 98.08393639 2.99536133 99.58753967 C2.91642092 106.09947264 2.91642092 106.09947264 0.27522278 108.69486427 C-1.77287488 110.00236156 -3.77153155 111.0372645 -6 112 C-7.10085938 112.52207031 -8.20171875 113.04414063 -9.3359375 113.58203125 C-10.33882813 113.98808594 -11.34171875 114.39414062 -12.375 114.8125 C-13.39335937 115.23144531 -14.41171875 115.65039062 -15.4609375 116.08203125 C-18 117 -18 117 -20 117 C-20.23205564 104.24783242 -20.409562 91.49616982 -20.51812172 78.74231815 C-20.57023546 72.81955776 -20.64087712 66.89824537 -20.75439453 60.97631836 C-20.86333055 55.25737297 -20.92289991 49.53981696 -20.94877243 43.81991386 C-20.96720072 41.64170907 -21.00318982 39.46357744 -21.05730057 37.28596687 C-21.46407677 20.23215925 -21.46407677 20.23215925 -17.86541748 14.74557495 C-15.35185456 12.45747814 -12.90421274 10.74862972 -10 9 C-8.47692076 7.7143539 -6.97256613 6.40570707 -5.5 5.0625 C-4.55640625 4.24458984 -4.55640625 4.24458984 -3.59375 3.41015625 C-2.3569701 2.31584855 -1.16771869 1.16771869 0 0 Z " fill="#000000" transform="translate(292,178)"/>
<path d="M0 0 C1.71993164 -0.03577148 1.71993164 -0.03577148 3.47460938 -0.07226562 C12.10793434 -0.05744022 18.24518786 1.53939777 24.46875 7.6953125 C24.9121875 8.35273438 25.355625 9.01015625 25.8125 9.6875 C26.2765625 10.35007812 26.740625 11.01265625 27.21875 11.6953125 C29.61724534 15.78988669 29.9140846 19.93936359 29.3125 24.5625 C27.62489519 29.39796871 25.22696973 33.20724024 21.3125 36.5625 C22.40602872 39.94249786 23.50174451 41.7697678 25.9375 44.4375 C28.3125 47.5625 28.3125 47.5625 28.875 51.1875 C28.3125 54.5625 28.3125 54.5625 26.6875 57 C23.55566508 59.06041771 21.99705227 59.2392545 18.3125 58.5625 C13.56805825 54.34777748 10.24482378 49.32190161 6.69140625 44.109375 C3.89461324 41.11510728 2.33138551 40.77067249 -1.6875 40.5625 C-1.64109375 41.44292969 -1.5946875 42.32335937 -1.546875 43.23046875 C-1.51078125 44.39191406 -1.4746875 45.55335938 -1.4375 46.75 C-1.39109375 47.89855469 -1.3446875 49.04710937 -1.296875 50.23046875 C-1.76521458 54.22540537 -2.80590333 55.80352446 -5.6875 58.5625 C-9.4345581 59.16470577 -11.60222173 59.22588725 -14.87304688 57.2265625 C-17.80577243 52.92060162 -17.25760827 48.46446644 -17.21875 43.375 C-17.2225769 42.28034424 -17.22640381 41.18568848 -17.23034668 40.05786133 C-17.23306736 37.74461955 -17.22569534 35.43134708 -17.20898438 33.11816406 C-17.1875784 29.57547478 -17.20878226 26.03481364 -17.234375 22.4921875 C-17.23173175 20.24478719 -17.22660684 17.99738813 -17.21875 15.75 C-17.22684692 14.68950439 -17.23494385 13.62900879 -17.24328613 12.53637695 C-17.15092503 5.30034189 -17.15092503 5.30034189 -15.0144043 1.89868164 C-10.38316246 -0.7607231 -5.20315737 -0.04889645 0 0 Z " fill="#060606" transform="translate(676.6875,296.4375)"/>
<path d="M0 0 C0 32.01 0 64.02 0 97 C-6.31265095 98.40281132 -10.41402908 99.24438778 -16.5625 99.125 C-17.78066406 99.10695313 -18.99882812 99.08890625 -20.25390625 99.0703125 C-21.16011719 99.04710937 -22.06632813 99.02390625 -23 99 C-23.48956368 88.45659239 -23.86111952 77.91593896 -24.08805561 67.36342621 C-24.19707097 62.46098393 -24.34441957 57.5663825 -24.58422852 52.66845703 C-26.09466183 21.02597656 -26.09466183 21.02597656 -20.90325928 12.59472656 C-16.01146568 7.28865435 -7.70215281 0 0 0 Z " fill="#030303" transform="translate(256,202)"/>
<path d="M0 0 C1.17018677 -0.00717545 1.17018677 -0.00717545 2.36401367 -0.01449585 C4.00799586 -0.01788758 5.65204615 -0.00873581 7.29589844 0.01220703 C9.80557295 0.03898858 12.31077629 0.0124405 14.8203125 -0.01953125 C16.42188482 -0.01622702 18.02345438 -0.00982049 19.625 0 C20.37096436 -0.01012115 21.11692871 -0.02024231 21.88549805 -0.03067017 C25.84919756 0.05803807 27.65927579 0.54454264 30.8203125 3.01025391 C32.8125 5.6640625 32.8125 5.6640625 32.875 8.7890625 C31.63997881 12.13088454 30.85482751 12.90371196 27.8125 14.6640625 C24.97167969 15.00463867 24.97167969 15.00463867 21.734375 14.95703125 C20.57421875 14.94736328 19.4140625 14.93769531 18.21875 14.92773438 C17.0121875 14.90259766 15.805625 14.87746094 14.5625 14.8515625 C12.72945312 14.83125977 12.72945312 14.83125977 10.859375 14.81054688 C7.84330502 14.7752023 4.82812513 14.7258581 1.8125 14.6640625 C1.8125 17.3040625 1.8125 19.9440625 1.8125 22.6640625 C2.45799805 22.64835205 3.10349609 22.6326416 3.76855469 22.61645508 C6.69978029 22.55400448 9.63086579 22.5150402 12.5625 22.4765625 C13.57828125 22.45142578 14.5940625 22.42628906 15.640625 22.40039062 C16.6203125 22.39072266 17.6 22.38105469 18.609375 22.37109375 C19.51010742 22.3553833 20.41083984 22.33967285 21.33886719 22.32348633 C24.33652273 22.73621131 25.6788358 23.53742094 27.8125 25.6640625 C28.3125 29.1640625 28.3125 29.1640625 27.8125 32.6640625 C25.6788358 34.79070406 24.33652273 35.59191369 21.33886719 36.00463867 C19.98776855 35.981073 19.98776855 35.981073 18.609375 35.95703125 C17.13984375 35.9425293 17.13984375 35.9425293 15.640625 35.92773438 C14.11695313 35.8900293 14.11695313 35.8900293 12.5625 35.8515625 C11.53125 35.83802734 10.5 35.82449219 9.4375 35.81054688 C6.89560951 35.77524284 4.3539881 35.72143723 1.8125 35.6640625 C1.8125 38.9640625 1.8125 42.2640625 1.8125 45.6640625 C2.60946289 45.64311523 3.40642578 45.62216797 4.22753906 45.60058594 C7.83906434 45.51742928 11.45038824 45.46540216 15.0625 45.4140625 C16.94388672 45.36378906 16.94388672 45.36378906 18.86328125 45.3125 C20.06855469 45.29960937 21.27382813 45.28671875 22.515625 45.2734375 C24.18093262 45.2420166 24.18093262 45.2420166 25.87988281 45.20996094 C29.47802557 45.76711591 30.62200978 46.81263724 32.8125 49.6640625 C33.3125 52.1640625 33.3125 52.1640625 32.8125 54.6640625 C31.31640625 56.78710938 31.31640625 56.78710938 28.8125 58.6640625 C25.83180487 59.06178869 23.22845697 59.22553309 20.25 59.1953125 C19.42169678 59.1991394 18.59339355 59.20296631 17.73999023 59.20690918 C15.99168683 59.20962675 14.24334266 59.20227631 12.49511719 59.18554688 C9.82134223 59.16413332 7.15025404 59.18535194 4.4765625 59.2109375 C2.77603575 59.20829419 1.07551066 59.20316915 -0.625 59.1953125 C-1.42301025 59.20340942 -2.22102051 59.21150635 -3.04321289 59.21984863 C-6.32003603 59.1645816 -8.78548742 58.88114694 -11.68725586 57.31420898 C-14.13625505 52.9881087 -13.77730924 48.61637185 -13.75390625 43.73046875 C-13.76010483 42.66038071 -13.76630341 41.59029266 -13.77268982 40.48777771 C-13.77979039 38.22582916 -13.77660991 35.96382837 -13.76391602 33.7019043 C-13.7500632 30.24234682 -13.78410493 26.78550034 -13.82226562 23.32617188 C-13.82321694 21.1276035 -13.82135734 18.92903175 -13.81640625 16.73046875 C-13.82966446 15.69700821 -13.84292267 14.66354767 -13.85658264 13.59877014 C-13.79746902 9.03438668 -13.66935465 6.41269231 -11.15991211 2.51391602 C-7.40327938 0.17600996 -4.2998221 -0.05833947 0 0 Z " fill="#050505" transform="translate(728.1875,296.3359375)"/>
<path d="M0 0 C0 24.75 0 49.5 0 75 C-13.5 72.75 -13.5 72.75 -18.25 71.375 C-19.16265625 71.11460937 -20.0753125 70.85421875 -21.015625 70.5859375 C-21.67046875 70.39257812 -22.3253125 70.19921875 -23 70 C-23.49026922 62.79588533 -23.86135999 55.59543392 -24.08805561 48.37792683 C-24.197073 45.02157161 -24.35533399 41.6853073 -24.58422852 38.33374023 C-26.02584028 16.66918256 -26.02584028 16.66918256 -20.90325928 10.4574585 C-15.58093678 5.97541725 -7.26524671 0 0 0 Z " fill="#030302" transform="translate(217,225)"/>
<path d="M0 0 C2.82618255 2.23996565 2.96543202 2.72345616 3.4375 6.5 C3 10 3 10 1.4375 12 C-1.99686398 13.40896984 -4.43067192 12.79318402 -8 12 C-8.66 11.67 -9.32 11.34 -10 11 C-14.36470475 10.50076906 -18.98196356 9.9731406 -22.98828125 12.01171875 C-26.1421518 14.6177706 -28.79899688 17.33715602 -29.30078125 21.48828125 C-29.35439109 29.19540743 -29.35439109 29.19540743 -26 36 C-22.16099726 39.39260708 -19.18615444 40.58624545 -14.01171875 40.33984375 C-10.79076392 39.79572128 -7.97093985 38.32041771 -5 37 C-1.24194094 36.48418797 0.27133136 36.51422091 3.4375 38.625 C5 41 5 41 5.125 43.9375 C3.70146752 47.81267176 1.50623513 49.97123502 -2 52 C-9.76648447 55.11977594 -18.45032235 55.45444758 -26.43359375 52.90234375 C-34.72856859 49.01892856 -39.6090364 44.485606 -43.375 36.1875 C-46.41617481 27.78927667 -45.61090497 20.07784344 -42 12 C-37.78822864 4.32855931 -31.77474185 -0.36629372 -23.6015625 -3.3046875 C-15.24383797 -5.5384337 -7.66147672 -3.81161654 0 0 Z " fill="#050505" transform="translate(578,301)"/>
<path d="M0 0 C4.72403852 1.9512333 7.72471109 5.44942218 10 10 C10.62393015 15.37471262 10.96022144 20.39189369 7.8125 25 C4.28116228 29.10186024 1.1470452 31.13172971 -4.3125 31.5625 C-8.99739552 31.40581453 -11.74549543 29.63533994 -15.37109375 26.80078125 C-19.28231943 22.47686029 -19.59556183 17.40224366 -19.52734375 11.80078125 C-18.62576529 7.01239785 -15.63337858 4.07439726 -12 1 C-8.31088477 -0.84455761 -4.03542855 -0.35062965 0 0 Z " fill="#FAFAFA" transform="translate(626,311)"/>
<path d="M0 0 C4.20872148 -0.08105241 8.4158763 -0.14053316 12.625 -0.1875 C14.40970703 -0.22520508 14.40970703 -0.22520508 16.23046875 -0.26367188 C27.23833629 -0.35591658 27.23833629 -0.35591658 32 3 C34.56077765 5.56077765 34.31451364 7.42882603 34.4609375 10.9296875 C33.77875023 13.99374898 32.4508031 15.06950135 30 17 C26.79199219 17.45410156 26.79199219 17.45410156 23.046875 17.390625 C22.38665344 17.38496521 21.72643188 17.37930542 21.04620361 17.37347412 C18.94671737 17.3511623 16.8489663 17.30098314 14.75 17.25 C13.3229414 17.22992794 11.89585592 17.21167839 10.46875 17.1953125 C6.97796781 17.15472201 3.49091519 17.0764434 0 17 C0 11.39 0 5.78 0 0 Z " fill="#FEFDFC" transform="translate(444,214)"/>
<path d="M0 0 C4.54230412 -0.10800723 9.08203539 -0.18733842 13.625 -0.25 C15.55279297 -0.30027344 15.55279297 -0.30027344 17.51953125 -0.3515625 C28.18958612 -0.46213302 28.18958612 -0.46213302 31.85546875 1.765625 C34 4 34 4 34.76171875 6 C34.61351446 9.99371564 34.52993289 11.45612151 31.625 14.4375 C27.62864818 16.81628085 25.57425527 17.11950587 20.8984375 17.09765625 C19.68671875 17.09443359 18.475 17.09121094 17.2265625 17.08789062 C15.95554687 17.07951172 14.68453125 17.07113281 13.375 17.0625 C12.09625 17.05798828 10.8175 17.05347656 9.5 17.04882812 C6.33331355 17.03701213 3.16665104 17.01907621 0 17 C0 11.39 0 5.78 0 0 Z " fill="#FEFEFD" transform="translate(444,170)"/>
<path d="M0 0 C2.10353495 -0.0810206 4.20795952 -0.13919907 6.3125 -0.1875 C7.48425781 -0.22230469 8.65601563 -0.25710938 9.86328125 -0.29296875 C13 0 13 0 14.890625 1.32421875 C16.64297386 3.97125276 16.44926608 5.91931827 16 9 C13.66471658 11.39101811 12.3368133 11.9672785 8.984375 12.29296875 C7.91703125 12.25816406 6.8496875 12.22335937 5.75 12.1875 C2.90375 12.0946875 2.90375 12.0946875 0 12 C0 8.04 0 4.08 0 0 Z " fill="#FCFCFC" transform="translate(675,311)"/>
<path d="M0 0 C0.66 0.33 1.32 0.66 2 1 C0.54144353 4.68646141 -1.30229045 6.16143971 -4.625 8.25 C-5.44226563 8.77078125 -6.25953125 9.2915625 -7.1015625 9.828125 C-8.04128906 10.40820312 -8.04128906 10.40820312 -9 11 C-9.66 10.67 -10.32 10.34 -11 10 C-5.555 5.05 -5.555 5.05 0 0 Z " fill="#E89B4C" transform="translate(201,158)"/>
</svg>
