<?xml version="1.0" encoding="UTF-8"?>
<svg version="1.1" xmlns="http://www.w3.org/2000/svg" width="494" height="404">
<path d="M0 0 C163.02 0 326.04 0 494 0 C494 133.32 494 266.64 494 404 C330.98 404 167.96 404 0 404 C0 270.68 0 137.36 0 0 Z " fill="#00A09E" transform="translate(0,0)"/>
<path d="M0 0 C3.13632471 4.80249721 2.81349798 9.49606474 2 15.0625 C0.32095277 18.6693422 -0.70148917 20.40759889 -4.24609375 22.1953125 C-15.03000297 25.59109668 -28.86675799 22.70542024 -39.94650269 21.92010498 C-52.97160862 21.00638791 -65.94523394 20.83269369 -79 21.0625 C-79.17015625 22.08085937 -79.3403125 23.09921875 -79.515625 24.1484375 C-80.81736697 31.79617155 -82.25067553 39.37884551 -84 46.9375 C-85.62027928 53.97556419 -86.85404491 61.01978092 -87.92358398 68.16088867 C-88.66329888 73.06320399 -89.54314345 77.8978628 -90.5625 82.75 C-91.86218257 89.05985785 -92.72700812 95.36789423 -93.48046875 101.76171875 C-94.0241732 106.35100657 -94.65820942 110.92530345 -95.3125 115.5 C-95.49510376 116.7845105 -95.49510376 116.7845105 -95.68139648 118.0949707 C-96.48854295 123.70327271 -97.34839225 129.30210993 -98.234375 134.8984375 C-98.67888502 137.723678 -99.12105646 140.54927891 -99.5625 143.375 C-99.67339966 144.08088257 -99.78429932 144.78676514 -99.89855957 145.51403809 C-101.51572741 155.87826334 -102.72901639 166.18704554 -103.19165039 176.67895508 C-103.58974773 183.58865405 -105.30655435 187.50717977 -110.4375 192.375 C-115.81146376 195.91395175 -122.7598442 195.72225216 -129 195.0625 C-133.56506181 192.86148805 -135.83882971 190.59912092 -138 186.0625 C-139.81227057 172.21057145 -137.12408152 158.47006364 -134.62280273 144.87695312 C-132.44163827 132.98020826 -130.6885316 121.05745409 -129.05386353 109.07406616 C-126.18582838 88.09820448 -122.61083466 67.36103736 -118.334198 46.62805176 C-117.00523552 40.17066291 -115.79930879 33.69389194 -114.62207031 27.20727539 C-114 24.0625 -114 24.0625 -113 21.0625 C-113.63389648 21.11784912 -114.26779297 21.17319824 -114.92089844 21.23022461 C-116.80334534 21.3945028 -118.68583608 21.55827915 -120.56835938 21.72167969 C-122.70013187 21.90816071 -124.83164376 22.09764383 -126.96289062 22.29003906 C-132.14665122 22.75361446 -137.298534 23.11852268 -142.5 23.3125 C-147.2994024 23.70716451 -151.47643186 25.08792684 -155.9375 26.8125 C-156.87916016 27.17263184 -156.87916016 27.17263184 -157.83984375 27.54003906 C-163.88829107 30.06565688 -168.26067922 34.09060453 -171 40.0625 C-172.04110502 48.52265068 -171.66865819 54.91361715 -167 62.0625 C-166.50532545 65.5444949 -166.39573828 68.85397656 -168 72.0625 C-168.66 72.0625 -169.32 72.0625 -170 72.0625 C-170 72.7225 -170 73.3825 -170 74.0625 C-174.82218978 77.59877251 -178.76656072 79.65020875 -184.87890625 79.515625 C-189.21657711 78.58897708 -191.56488782 75.5937089 -194 72.0625 C-200.17348988 60.25789402 -202.48303302 45.63073933 -199.09375 32.5703125 C-196.64736798 26.40731164 -193.46003597 20.97174822 -189 16.0625 C-188.47277344 15.48113281 -187.94554687 14.89976562 -187.40234375 14.30078125 C-172.21177267 -0.55593113 -148.2352244 -4.53135478 -128 -6.9375 C-127.14229004 -7.04191406 -126.28458008 -7.14632812 -125.40087891 -7.25390625 C-28.43179482 -18.36220082 -28.43179482 -18.36220082 0 0 Z " fill="#F9FDFD" transform="translate(349,114.9375)"/>
<path d="M0 0 C0.89135336 -0.00282738 1.78270672 -0.00565475 2.70107079 -0.00856781 C7.42612368 -0.02349768 12.15114659 -0.03276408 16.8762207 -0.03710938 C21.69205995 -0.04255955 26.50761156 -0.06653204 31.3233614 -0.09508133 C35.08237944 -0.1139568 38.84133192 -0.1189265 42.6003933 -0.12044525 C44.37213893 -0.12342074 46.14388491 -0.13126966 47.91558266 -0.14463043 C62.15378175 -0.24427067 76.54909667 0.58034692 90.38671875 4.203125 C90.38671875 4.863125 90.38671875 5.523125 90.38671875 6.203125 C89.50757813 6.08195312 88.6284375 5.96078125 87.72265625 5.8359375 C64.81981015 2.89967518 42.01582846 2.01428007 18.94921875 2.015625 C17.95099091 2.01471863 16.95276306 2.01381226 15.92428589 2.01287842 C1.38941465 2.01437219 -13.0978498 2.46105491 -27.61328125 3.203125 C-27.94328125 2.543125 -28.27328125 1.883125 -28.61328125 1.203125 C-19.07894935 -0.00785346 -9.59430136 0.02070098 0 0 Z " fill="#2AA09B" transform="translate(251.61328125,104.796875)"/>
<path d="M0 0 C-1.28553773 12.8745644 -3.76929703 25.4298886 -6.3984375 38.08886719 C-7.28689006 42.38834298 -8.14519231 46.69372719 -9 51 C-9.33 51 -9.66 51 -10 51 C-10.05513412 49.33372448 -10.09329293 47.66688588 -10.125 46 C-10.14820313 45.071875 -10.17140625 44.14375 -10.1953125 43.1875 C-10.0012518 40.02042942 -9.3241341 37.20644962 -8.50341797 34.15039062 C-7.44524951 29.63033835 -7.19631149 24.97486357 -6.7890625 20.359375 C-6.3975686 16.36343723 -5.83526438 13.58450074 -4 10 C-3.53470056 7.33616069 -3.26941124 4.69411243 -3 2 C-5.93782469 2.14075205 -8.87515171 2.2873838 -11.8125 2.4375 C-12.64587891 2.47681641 -13.47925781 2.51613281 -14.33789062 2.55664062 C-15.14033203 2.59853516 -15.94277344 2.64042969 -16.76953125 2.68359375 C-17.87711792 2.73858032 -17.87711792 2.73858032 -19.00708008 2.79467773 C-21.207495 2.94842141 -21.207495 2.94842141 -24 4 C-25.33363703 4.14403348 -26.67218046 4.24590423 -28.01171875 4.31640625 C-29.14770508 4.37924805 -29.14770508 4.37924805 -30.30664062 4.44335938 C-31.09232422 4.48267578 -31.87800781 4.52199219 -32.6875 4.5625 C-33.48478516 4.60568359 -34.28207031 4.64886719 -35.10351562 4.69335938 C-37.06881447 4.79927368 -39.03438496 4.90012551 -41 5 C-36.32152503 1.88101669 -31.77987801 1.51823047 -26.3125 0.9375 C-25.47485107 0.84807129 -24.63720215 0.75864258 -23.77416992 0.66650391 C-15.82759109 -0.12102868 -7.97990627 -0.19812181 0 0 Z " fill="#209F9A" transform="translate(236,136)"/>
<path d="M0 0 C0.33 0 0.66 0 1 0 C0.67 5.61 0.34 11.22 0 17 C-0.66 17 -1.32 17 -2 17 C-1.91621094 17.6290625 -1.83242188 18.258125 -1.74609375 18.90625 C-1.00062347 25.1719749 -0.38543151 31.27322206 -2.96240234 37.22143555 C-4.2971625 40.79576621 -4.78564305 44.38449726 -5.2890625 48.14453125 C-5.39721283 48.91431808 -5.50536316 49.68410492 -5.61679077 50.47721863 C-5.95881555 52.92152739 -6.29202896 55.36694317 -6.625 57.8125 C-6.85618902 59.47599242 -7.08795364 61.13940495 -7.3203125 62.80273438 C-7.88687691 66.86759486 -8.44554529 70.93347078 -9 75 C-9.66 74.67 -10.32 74.34 -11 74 C-9.68583454 62.20343238 -8.10624883 50.46035446 -6.39111328 38.71582031 C-5.99805395 35.98648698 -5.61988439 33.25547183 -5.24609375 30.5234375 C-3.83359091 20.26250795 -2.19310601 10.12561709 0 0 Z " fill="#2AA19D" transform="translate(260,185)"/>
<path d="M0 0 C1.16080078 0.00902344 2.32160156 0.01804688 3.51757812 0.02734375 C6.36610108 0.05078838 9.21419078 0.08360478 12.0625 0.125 C11.97478454 2.81393267 11.86782075 5.49985308 11.75 8.1875 C11.72744141 8.93966797 11.70488281 9.69183594 11.68164062 10.46679688 C11.43370934 15.67335384 10.37842957 19.44967837 8.0625 24.125 C6.46464157 20.0451348 7.58950396 16.19462103 8.4375 12.0625 C8.57671875 11.34255859 8.7159375 10.62261719 8.859375 9.88085938 C9.44829462 6.88903659 10.09733124 4.02050628 11.0625 1.125 C10.40765625 1.18558594 9.7528125 1.24617187 9.078125 1.30859375 C6.07324635 1.58446538 3.06789108 1.85477043 0.0625 2.125 C-0.96746094 2.22039062 -1.99742187 2.31578125 -3.05859375 2.4140625 C-8.71228726 2.91821351 -14.26164798 3.234151 -19.9375 3.125 C-19.9375 2.795 -19.9375 2.465 -19.9375 2.125 C-13.32412851 -0.31302084 -6.98501938 -0.10324645 0 0 Z " fill="#ACE5E4" transform="translate(224.9375,134.875)"/>
<path d="M0 0 C0.33 0.66 0.66 1.32 1 2 C-0.34423101 5.25445403 -1.37102344 7.51478951 -4.1875 9.6875 C-6.83779862 13.06891548 -6.53975389 15.99940902 -6.40625 20.19921875 C-5.90433046 23.65956791 -4.64594475 25.96848794 -2.890625 28.94140625 C-1.2261913 32.78858415 -1.69701572 36.89287973 -2 41 C-2.66 40.67 -3.32 40.34 -4 40 C-3.9175 38.824375 -3.835 37.64875 -3.75 36.4375 C-3.72545428 32.90291584 -3.96133419 32.05920702 -6 28.9375 C-9.57575687 23.37521154 -8.80284004 16.3002532 -8 10 C-6.23530315 5.37945786 -4.09728513 2.73152342 0 0 Z " fill="#39A5A0" transform="translate(185,145)"/>
<path d="M0 0 C0.33 0 0.66 0 1 0 C0.9278125 0.59941406 0.855625 1.19882812 0.78125 1.81640625 C-0.34908462 12.85286788 -0.09153939 23.91950844 0 35 C-0.99 34.67 -1.98 34.34 -3 34 C-3.25255102 8.23979592 -3.25255102 8.23979592 0 0 Z " fill="#24A09B" transform="translate(212,268)"/>
<path d="M0 0 C0.33 0 0.66 0 1 0 C1 10.56 1 21.12 1 32 C-2.6706167 26.49407495 -2.1818173 19.80781506 -2.1875 13.375 C-2.19974609 12.63765625 -2.21199219 11.9003125 -2.22460938 11.140625 C-2.23580826 6.97463951 -1.87155235 3.74310471 0 0 Z " fill="#D0F7F7" transform="translate(151,146)"/>
<path d="M0 0 C0 0.66 0 1.32 0 2 C-0.66 2 -1.32 2 -2 2 C-2 2.66 -2 3.32 -2 4 C-3.98 4.33 -5.96 4.66 -8 5 C-8.33 5.99 -8.66 6.98 -9 8 C-9.9590625 8.2165625 -9.9590625 8.2165625 -10.9375 8.4375 C-11.9584375 8.7159375 -11.9584375 8.7159375 -13 9 C-13.309375 9.66 -13.61875 10.32 -13.9375 11 C-14.288125 11.66 -14.63875 12.32 -15 13 C-17.625 13.75 -17.625 13.75 -20 14 C-15.70239258 8.15047878 -7.78520779 0 0 0 Z " fill="#CEF3F3" transform="translate(179,119)"/>
<path d="M0 0 C0.66 0 1.32 0 2 0 C1.61336547 9.01258426 0.52446512 17.33108203 -2 26 C-2.33 26 -2.66 26 -3 26 C-3.19715301 19.84444488 -3.1546855 14.83032548 -1 9 C-0.54943102 6.0094103 -0.25443903 3.01309375 0 0 Z " fill="#D0F5F6" transform="translate(267,136)"/>
<path d="M0 0 C0.66 0.33 1.32 0.66 2 1 C1.61328125 1.40089844 1.2265625 1.80179688 0.828125 2.21484375 C-3.34254916 6.76748559 -5.77276265 11.27128855 -8 17 C-8.4125 18.010625 -8.825 19.02125 -9.25 20.0625 C-9.4975 20.701875 -9.745 21.34125 -10 22 C-10.33 22 -10.66 22 -11 22 C-10 13.42857143 -10 13.42857143 -9 10 C-8.34 10 -7.68 10 -7 10 C-6.9175 9.21625 -6.835 8.4325 -6.75 7.625 C-6 5 -6 5 -3.9375 3.6875 C-3.298125 3.460625 -2.65875 3.23375 -2 3 C-2 2.34 -2 1.68 -2 1 C-1.34 0.67 -0.68 0.34 0 0 Z " fill="#249B98" transform="translate(160,129)"/>
<path d="M0 0 C1.49739583 1.26953125 2.99479167 2.5390625 4.4921875 3.80859375 C8.70570129 7.13792459 13.87586486 6.30397412 19 6 C22.3815339 5.18156968 22.3815339 5.18156968 25 4 C25.99 3.67 26.98 3.34 28 3 C27.375 4.9375 27.375 4.9375 26 7 C18.70784826 8.65585978 9.39043485 9.87128686 2.6875 6 C1.800625 5.34 0.91375 4.68 0 4 C0 2.68 0 1.36 0 0 Z " fill="#2DA1A1" transform="translate(212,303)"/>
<path d="M0 0 C0.56122991 11.8689733 0.56122991 11.8689733 -3 16 C-3.33 16 -3.66 16 -4 16 C-3.88658509 13.51979503 -3.75985314 11.04155031 -3.625 8.5625 C-3.5940625 7.85544922 -3.563125 7.14839844 -3.53125 6.41992188 C-3.42719371 4.60760812 -3.22080108 2.80182012 -3 1 C-1 0 -1 0 0 0 Z " fill="#DAF7F7" transform="translate(245,288)"/>
<path d="M0 0 C0.33 0 0.66 0 1 0 C0.67 5.61 0.34 11.22 0 17 C-0.66 17 -1.32 17 -2 17 C-2 18.98 -2 20.96 -2 23 C-2.66 23.33 -3.32 23.66 -4 24 C-3.28621973 15.86290495 -1.67226118 7.98268072 0 0 Z " fill="#4CAFAC" transform="translate(260,185)"/>
<path d="M0 0 C0.66 0.33 1.32 0.66 2 1 C1.74551193 3.46104938 1.47227281 5.91743305 1.1875 8.375 C1.11724609 9.07367188 1.04699219 9.77234375 0.97460938 10.4921875 C0.75211708 12.34332338 0.38337478 14.17538205 0 16 C-0.99 16.66 -1.98 17.32 -3 18 C-2.41509121 11.85845775 -1.45933748 5.99320151 0 0 Z " fill="#46ADA8" transform="translate(265,157)"/>
<path d="M0 0 C0.33 0.66 0.66 1.32 1 2 C-0.8130666 6.63339243 -2.94775971 9.1524798 -7 12 C-6.6257368 6.63556087 -5.0040457 4.50353999 -1 1 C-0.67 0.67 -0.34 0.34 0 0 Z " fill="#20A09A" transform="translate(185,145)"/>
<path d="M0 0 C2.31 0.66 4.62 1.32 7 2 C6.67 7.61 6.34 13.22 6 19 C5.34 19 4.68 19 4 19 C4.04640625 18.04738281 4.0928125 17.09476563 4.140625 16.11328125 C4.17671875 14.85902344 4.2128125 13.60476562 4.25 12.3125 C4.29640625 11.07113281 4.3428125 9.82976562 4.390625 8.55078125 C3.94119343 4.46544831 2.82179677 2.90511754 0 0 Z " fill="#39A9A7" transform="translate(346,113)"/>
<path d="M0 0 C1.32196493 2.64392986 0.79539354 3.90802036 0.22265625 6.7890625 C0.03896484 7.73007813 -0.14472656 8.67109375 -0.33398438 9.640625 C-0.53314453 10.62546875 -0.73230469 11.6103125 -0.9375 12.625 C-1.13279297 13.61757812 -1.32808594 14.61015625 -1.52929688 15.6328125 C-2.01360309 18.08978064 -2.50407697 20.54535485 -3 23 C-3.33 23 -3.66 23 -4 23 C-4.40756134 15.19595509 -3.63149275 8.38999519 -1 1 C-0.67 0.67 -0.34 0.34 0 0 Z " fill="#39A7A4" transform="translate(230,164)"/>
<path d="M0 0 C0 0.66 0 1.32 0 2 C-5.10334017 3.905247 -9.46342706 5.42589023 -15 5 C-12.58923344 3.39282229 -10.71900755 2.38457485 -8.0625 1.375 C-7.39347656 1.11460938 -6.72445312 0.85421875 -6.03515625 0.5859375 C-4 0 -4 0 0 0 Z " fill="#C6F1F1" transform="translate(194,114)"/>
<path d="M0 0 C0.33 0 0.66 0 1 0 C1 1.65 1 3.3 1 5 C0.01 5.33 -0.98 5.66 -2 6 C-2 7.65 -2 9.3 -2 11 C-3.32 11.33 -4.64 11.66 -6 12 C-4.68315519 7.39104317 -2.84801255 3.85859765 0 0 Z " fill="#CDF2F3" transform="translate(158,133)"/>
<path d="M0 0 C0.33 0 0.66 0 1 0 C0.88529863 1.75070517 0.75780972 3.50057536 0.625 5.25 C0.55539063 6.22453125 0.48578125 7.1990625 0.4140625 8.203125 C0.01534751 10.89633189 -0.63507063 12.66963279 -2 15 C-2.05429959 13.25034642 -2.09292823 11.50020213 -2.125 9.75 C-2.15980469 8.28820312 -2.15980469 8.28820312 -2.1953125 6.796875 C-1.99862781 3.9803502 -1.44568916 2.39050964 0 0 Z " fill="#C9F4F3" transform="translate(255,210)"/>
<path d="M0 0 C-2.4566947 1.00419637 -4.91518353 2.00350501 -7.375 3 C-8.42300781 3.42925781 -8.42300781 3.42925781 -9.4921875 3.8671875 C-14.7734375 6 -14.7734375 6 -17 6 C-16.67 5.01 -16.34 4.02 -16 3 C-13.41796875 1.796875 -13.41796875 1.796875 -10.1875 0.75 C-9.12917969 0.39421875 -8.07085937 0.0384375 -6.98046875 -0.328125 C-4.09552272 -0.9784667 -2.71843369 -1.02681757 0 0 Z " fill="#289B98" transform="translate(190,115)"/>
<path d="M0 0 C1.98974713 2.80905477 2.1011012 4.87286664 1.75 8.1875 C1.5025 9.445625 1.255 10.70375 1 12 C0.01 12.495 0.01 12.495 -1 13 C-1.02686553 11.02090602 -1.04633375 9.04171029 -1.0625 7.0625 C-1.07410156 5.96035156 -1.08570313 4.85820312 -1.09765625 3.72265625 C-1 1 -1 1 0 0 Z " fill="#14A097" transform="translate(257,208)"/>
<path d="M0 0 C0.33 0 0.66 0 1 0 C1 3.3 1 6.6 1 10 C1.66 10 2.32 10 3 10 C3.33 12.31 3.66 14.62 4 17 C1.27475359 14.39324256 0.03732993 13.07808847 -0.09765625 9.1796875 C-0.08605469 8.08914063 -0.07445312 6.99859375 -0.0625 5.875 C-0.05347656 4.77929688 -0.04445312 3.68359375 -0.03515625 2.5546875 C-0.02355469 1.71164062 -0.01195312 0.86859375 0 0 Z " fill="#CBF7F6" transform="translate(211,289)"/>
<path d="M0 0 C0.66 0 1.32 0 2 0 C1.06677104 3.22388187 0.58700229 4.66015657 -2.375 6.375 C-5.08323761 7.01981848 -6.42385222 6.95412881 -9 6 C-6.0173094 4.47551369 -3.181798 3.06059933 0 2 C0 1.34 0 0.68 0 0 Z " fill="#289C9B" transform="translate(179,187)"/>
<path d="M0 0 C1.03719328 3.21456356 0.94068337 5.40925583 0.1875 8.6875 C0.01605469 9.47511719 -0.15539062 10.26273438 -0.33203125 11.07421875 C-1 13 -1 13 -3 14 C-2.58846263 9.02906176 -2.20399168 4.55491614 0 0 Z " fill="#D9FCFB" transform="translate(233,156)"/>
<path d="M0 0 C4.75 0.875 4.75 0.875 7 2 C8.53668865 2.22467831 10.07968054 2.40796805 11.625 2.5625 C12.44226563 2.64628906 13.25953125 2.73007812 14.1015625 2.81640625 C14.72804687 2.87699219 15.35453125 2.93757813 16 3 C16 3.33 16 3.66 16 4 C4.1310267 4.56122991 4.1310267 4.56122991 0 1 C0 0.67 0 0.34 0 0 Z " fill="#A6E8E7" transform="translate(215,306)"/>
<path d="M0 0 C1.65 0 3.3 0 5 0 C5 0.66 5 1.32 5 2 C7.31 2.66 9.62 3.32 12 4 C12 4.33 12 4.66 12 5 C6.71502591 5.44041451 6.71502591 5.44041451 4 5 C1.5 2.5 1.5 2.5 0 0 Z " fill="#BBECEB" transform="translate(158,189)"/>
<path d="M0 0 C0.33 0 0.66 0 1 0 C1.02708567 1.60407328 1.04643483 3.2082785 1.0625 4.8125 C1.07410156 5.70582031 1.08570313 6.59914062 1.09765625 7.51953125 C1 10 1 10 0 13 C-0.66 13 -1.32 13 -2 13 C-1.48041715 8.62065881 -0.94324258 4.31196609 0 0 Z " fill="#CBF3F3" transform="translate(227,182)"/>
<path d="M0 0 C-5.7143875 3.33339271 -11.54711078 4.6132223 -18 3 C-18 2.67 -18 2.34 -18 2 C-15.93827387 1.66191314 -13.8755797 1.32972639 -11.8125 1 C-10.66394531 0.814375 -9.51539063 0.62875 -8.33203125 0.4375 C-5.49584607 0.06510523 -2.85280436 -0.08596021 0 0 Z " fill="#C2F0F0" transform="translate(220,109)"/>
<path d="M0 0 C0 0.66 0 1.32 0 2 C-0.66 2 -1.32 2 -2 2 C-2 2.66 -2 3.32 -2 4 C-4.31 4.33 -6.62 4.66 -9 5 C-6.45523312 2.20075644 -3.92372883 0 0 0 Z " fill="#C1EEEE" transform="translate(179,119)"/>
<path d="M0 0 C0.33 0 0.66 0 1 0 C1.33 2.97 1.66 5.94 2 9 C0.02 9.99 0.02 9.99 -2 11 C-2 10.01 -2 9.02 -2 8 C-1.34 8 -0.68 8 0 8 C0 5.36 0 2.72 0 0 Z " fill="#0C9B98" transform="translate(183,178)"/>
</svg>
