<?xml version="1.0" encoding="UTF-8"?>
<svg version="1.1" xmlns="http://www.w3.org/2000/svg" width="416" height="376">
<path d="M0 0 C137.28 0 274.56 0 416 0 C416 124.08 416 248.16 416 376 C278.72 376 141.44 376 0 376 C0 251.92 0 127.84 0 0 Z " fill="#FEFEFE" transform="translate(0,0)"/>
<path d="M0 0 C2.09094755 0.01079579 4.18104981 0.00000952 6.27197266 -0.01269531 C7.61963078 -0.01137475 8.96728838 -0.00881448 10.31494141 -0.00488281 C12.12043457 -0.00149902 12.12043457 -0.00149902 13.96240234 0.00195312 C17.38911355 0.26524059 20.13315765 1.03322003 23.33056641 2.26074219 C23.33056641 2.92074219 23.33056641 3.58074219 23.33056641 4.26074219 C24.31283203 4.37289062 24.31283203 4.37289062 25.31494141 4.48730469 C33.22851365 5.6273956 39.34602111 8.4831853 46.33056641 12.26074219 C47.68271131 12.89010418 49.03664007 13.51566158 50.39306641 14.13574219 C57.91385789 17.89613793 64.51854683 23.23985316 70.33056641 29.26074219 C71.19294922 30.13730469 72.05533203 31.01386719 72.94384766 31.91699219 C80.94319794 40.34467237 87.80593989 49.00024707 91.33056641 60.26074219 C91.94738872 61.68098853 92.57233096 63.09773748 93.20556641 64.51074219 C103.38470889 90.30300546 100.66386531 116.95019707 91.22509766 142.49511719 C90.33056641 144.26074219 90.33056641 144.26074219 88.33056641 145.26074219 C87.67498106 146.84794881 87.02093389 148.4358038 86.37353516 150.02636719 C83.0842313 157.07311553 78.41514312 165.79109064 71.14306641 169.32324219 C68.80195709 170.5341608 68.28985515 171.86252033 67.33056641 174.26074219 C66.67056641 174.26074219 66.01056641 174.26074219 65.33056641 174.26074219 C65.33056641 174.92074219 65.33056641 175.58074219 65.33056641 176.26074219 C64.67056641 176.26074219 64.01056641 176.26074219 63.33056641 176.26074219 C62.99025391 177.18886719 62.99025391 177.18886719 62.64306641 178.13574219 C61.33056641 180.26074219 61.33056641 180.26074219 58.97900391 181.19433594 C56.23917997 182.29753938 54.8011335 183.47114508 52.64306641 185.44824219 C45.86069019 190.92455272 37.4613022 193.41011774 29.33056641 196.26074219 C28.36505859 196.61523438 27.39955078 196.96972656 26.40478516 197.33496094 C8.29209156 202.78948239 -10.64332233 201.15770926 -28.66943359 196.26074219 C-29.39275879 196.07350586 -30.11608398 195.88626953 -30.86132812 195.69335938 C-40.11987604 193.26495655 -47.84039771 189.88707505 -55.66943359 184.26074219 C-56.62462891 183.65230469 -57.57982422 183.04386719 -58.56396484 182.41699219 C-62.08324936 179.9734135 -65.12200435 177.25734504 -68.23193359 174.32324219 C-68.78300781 173.81083984 -69.33408203 173.2984375 -69.90185547 172.77050781 C-71.5011094 171.27749139 -73.08705964 169.77161646 -74.66943359 168.26074219 C-75.56919922 167.40738281 -76.46896484 166.55402344 -77.39599609 165.67480469 C-79.54628041 163.39151309 -81.0092054 161.32701014 -82.48193359 158.57324219 C-82.90087891 157.80625 -83.31982422 157.03925781 -83.75146484 156.24902344 C-84.66943359 154.26074219 -84.66943359 154.26074219 -84.66943359 152.26074219 C-85.65943359 151.93074219 -86.64943359 151.60074219 -87.66943359 151.26074219 C-88.6809082 149.54931641 -88.6809082 149.54931641 -89.57177734 147.31542969 C-90.07161133 146.06826172 -90.07161133 146.06826172 -90.58154297 144.79589844 C-90.91992188 143.91804687 -91.25830078 143.04019531 -91.60693359 142.13574219 C-91.94144531 141.31203125 -92.27595703 140.48832031 -92.62060547 139.63964844 C-97.57673798 127.0535547 -100.32728172 115.41100539 -100.08105469 101.95166016 C-100.04407291 99.86539471 -100.04004063 97.78089867 -100.04052734 95.69433594 C-99.98515451 85.18827345 -98.26198004 76.10373528 -94.66943359 66.26074219 C-94.26982422 65.12378906 -93.87021484 63.98683594 -93.45849609 62.81542969 C-85.56204406 41.20704742 -85.56204406 41.20704742 -77.66943359 37.26074219 C-77.21697266 36.49375 -76.76451172 35.72675781 -76.29833984 34.93652344 C-73.59882112 30.50206222 -69.61455489 27.5707356 -65.66943359 24.26074219 C-64.45126953 23.21273437 -64.45126953 23.21273437 -63.20849609 22.14355469 C-58.369063 18.09797182 -53.65121709 14.96262171 -47.89599609 12.36621094 C-45.65006738 11.3563548 -45.65006738 11.3563548 -43.91943359 9.81542969 C-40.56512019 7.4976923 -36.90310429 6.44513495 -33.04443359 5.19824219 C-32.28775391 4.94236328 -31.53107422 4.68648438 -30.75146484 4.42285156 C-20.44508769 1.03098971 -10.84446663 -0.0667036 0 0 Z " fill="#DFFE56" transform="translate(210.66943359375,79.7392578125)"/>
<path d="M0 0 C6.39660007 4.96311253 9.02641768 10.8441861 10.09765625 18.74609375 C10.27694146 22.02881841 10.32916397 25.31071747 10.37890625 28.59765625 C10.39731567 29.5341098 10.4157251 30.47056335 10.43469238 31.43539429 C10.51302214 35.42426662 10.58114783 39.41329664 10.64990234 43.40234375 C10.70169426 46.3216974 10.75890028 49.24091047 10.81640625 52.16015625 C10.83676941 53.51181381 10.83676941 53.51181381 10.85754395 54.89077759 C10.88262024 56.15261368 10.88262024 56.15261368 10.90820312 57.43994141 C10.9207312 58.17685211 10.93325928 58.91376282 10.94616699 59.67300415 C11.10568388 61.8559497 11.32414234 63.69299778 12.09765625 65.74609375 C13.08765625 66.07609375 14.07765625 66.40609375 15.09765625 66.74609375 C15.09765625 67.73609375 15.09765625 68.72609375 15.09765625 69.74609375 C12.6386697 69.82686338 10.18231883 69.88646518 7.72265625 69.93359375 C7.02398437 69.95873047 6.3253125 69.98386719 5.60546875 70.00976562 C3.57421875 70.0390625 3.57421875 70.0390625 0.09765625 69.74609375 C-1.91643935 66.72495035 -2.17070971 65.93949358 -2.31640625 62.515625 C-2.35507812 61.71318359 -2.39375 60.91074219 -2.43359375 60.08398438 C-2.46453125 59.25060547 -2.49546875 58.41722656 -2.52734375 57.55859375 C-2.56601562 56.71361328 -2.6046875 55.86863281 -2.64453125 54.99804688 C-2.73870654 52.91441851 -2.8216105 50.83028622 -2.90234375 48.74609375 C-3.24265625 49.45894531 -3.58296875 50.17179687 -3.93359375 50.90625 C-8.70916194 60.34307756 -14.13412891 66.47786168 -24.25390625 70.08984375 C-30.28656262 71.58466126 -35.75720917 71.34391814 -41.71484375 69.68359375 C-45.9976644 67.08031061 -49.90845998 63.70967444 -51.546875 58.82421875 C-52.46958863 53.42989292 -52.89744808 47.89113555 -50.27734375 42.93359375 C-42.25418887 32.16567535 -29.86504589 28.84015186 -17.40234375 25.43359375 C-16.11564137 25.07183043 -14.82918106 24.709205 -13.54296875 24.34570312 C-4.23389137 21.74609375 -4.23389137 21.74609375 -1.90234375 21.74609375 C-3.47433597 11.90066128 -3.47433597 11.90066128 -9.71484375 4.43359375 C-16.36152176 1.0193002 -24.38885104 1.89895162 -31.41796875 3.59375 C-47.82080823 9.2203054 -54.43685334 23.60391785 -61.66796875 38.296875 C-65.32056135 45.85079621 -68.85539899 53.45859012 -72.3515625 61.0859375 C-76.24283422 69.52625239 -80.09861198 77.41103434 -85.90234375 84.74609375 C-86.56234375 85.67421875 -87.22234375 86.60234375 -87.90234375 87.55859375 C-92.73582716 92.84521623 -98.36073917 96.49178635 -105.6015625 97.01171875 C-106.91769531 97.0065625 -108.23382813 97.00140625 -109.58984375 96.99609375 C-110.60401367 97.00769531 -110.60401367 97.00769531 -111.63867188 97.01953125 C-116.64884725 96.99959025 -116.64884725 96.99959025 -118.90234375 94.74609375 C-118.70767291 91.69625063 -118.49888187 89.52368147 -116.61206055 87.06420898 C-114.45623834 85.40216641 -113.42384272 85.44194198 -110.734375 85.59375 C-109.92291016 85.62146484 -109.11144531 85.64917969 -108.27539062 85.67773438 C-106.58763354 85.76398893 -104.90011294 85.85502259 -103.21289062 85.95117188 C-97.22171951 86.14474005 -92.89200297 85.17509433 -87.90234375 81.74609375 C-83.3328234 76.82507183 -82.48001635 73.5746512 -82.54541016 66.99560547 C-83.21733282 60.87844361 -85.71307549 55.43778173 -88.08984375 49.80859375 C-88.57259766 48.62330078 -89.05535156 47.43800781 -89.55273438 46.21679688 C-90.98262325 42.7178876 -92.43884336 39.23105875 -93.90234375 35.74609375 C-94.78291964 33.6290591 -95.66314677 31.51187933 -96.54296875 29.39453125 C-97.32897317 27.51152921 -98.11539279 25.6287004 -98.90234375 23.74609375 C-99.22630127 22.96903076 -99.55025879 22.19196777 -99.8840332 21.39135742 C-100.73525382 19.35977755 -101.59814515 17.33360954 -102.46484375 15.30859375 C-102.8815332 14.30795898 -102.8815332 14.30795898 -103.30664062 13.28710938 C-105.04517631 9.24651265 -107.10551772 6.1181969 -109.90234375 2.74609375 C-109.90234375 2.08609375 -109.90234375 1.42609375 -109.90234375 0.74609375 C-110.89234375 0.41609375 -111.88234375 0.08609375 -112.90234375 -0.25390625 C-112.90234375 -0.91390625 -112.90234375 -1.57390625 -112.90234375 -2.25390625 C-105.97234375 -2.25390625 -99.04234375 -2.25390625 -91.90234375 -2.25390625 C-91.90234375 -1.59390625 -91.90234375 -0.93390625 -91.90234375 -0.25390625 C-92.89234375 0.24109375 -92.89234375 0.24109375 -93.90234375 0.74609375 C-93.35419324 5.6240174 -92.33417584 9.71309583 -90.46484375 14.24609375 C-90.21186523 14.86339355 -89.95888672 15.48069336 -89.69824219 16.11669922 C-85.92469051 25.23867833 -81.92621081 34.26928549 -77.95214844 43.30517578 C-76.89226553 45.76952678 -75.88784015 48.2511732 -74.90234375 50.74609375 C-72.7423775 47.9991461 -71.03038837 45.26212048 -69.44921875 42.1484375 C-68.99853027 41.26969971 -68.5478418 40.39096191 -68.08349609 39.4855957 C-67.61121582 38.56093506 -67.13893555 37.63627441 -66.65234375 36.68359375 C-58.00085489 20.01437799 -49.65517426 4.24078131 -30.95703125 -2.28125 C-20.4351675 -5.26198686 -9.44013632 -6.22234858 0 0 Z " fill="#F5A60F" transform="translate(261.90234375,141.25390625)"/>
<path d="M0 0 C-1.9375 0.5625 -1.9375 0.5625 -4 1 C-4.495 0.505 -4.495 0.505 -5 0 C-7.86267567 -0.07325168 -10.700719 -0.09238205 -13.5625 -0.0625 C-14.36880859 -0.05798828 -15.17511719 -0.05347656 -16.00585938 -0.04882812 C-18.00393756 -0.03700518 -20.00197783 -0.01906914 -22 0 C-17.545 0.99 -17.545 0.99 -13 2 C-13 2.33 -13 2.66 -13 3 C-13.78761719 3.01417969 -14.57523437 3.02835938 -15.38671875 3.04296875 C-25.46595367 3.48430803 -35.43194578 5.31983609 -43.1875 12.25 C-55.63598611 26.28710044 -62.73254692 45.50489411 -70.44921875 62.33984375 C-74.34049047 70.78015864 -78.19626823 78.66494059 -84 86 C-84.66 86.928125 -85.32 87.85625 -86 88.8125 C-90.83348341 94.09912248 -96.45839542 97.7456926 -103.69921875 98.265625 C-105.01535156 98.26046875 -106.33148438 98.2553125 -107.6875 98.25 C-108.70166992 98.26160156 -108.70166992 98.26160156 -109.73632812 98.2734375 C-114.7465035 98.2534965 -114.7465035 98.2534965 -117 96 C-116.80532916 92.95015688 -116.59653812 90.77758772 -114.7097168 88.31811523 C-112.55389459 86.65607266 -111.52149897 86.69584823 -108.83203125 86.84765625 C-108.02056641 86.87537109 -107.20910156 86.90308594 -106.37304688 86.93164062 C-104.68528979 87.01789518 -102.99776919 87.10892884 -101.31054688 87.20507812 C-95.31937576 87.3986463 -90.98965922 86.42900058 -86 83 C-81.43047965 78.07897808 -80.5776726 74.82855745 -80.64306641 68.24951172 C-81.31498907 62.13234986 -83.81073174 56.69168798 -86.1875 51.0625 C-86.67025391 49.87720703 -87.15300781 48.69191406 -87.65039062 47.47070312 C-89.0802795 43.97179385 -90.53649961 40.484965 -92 37 C-92.88057589 34.88296535 -93.76080302 32.76578558 -94.640625 30.6484375 C-95.42662942 28.76543546 -96.21304904 26.88260665 -97 25 C-97.32395752 24.22293701 -97.64791504 23.44587402 -97.98168945 22.64526367 C-98.83291007 20.6136838 -99.6958014 18.58751579 -100.5625 16.5625 C-100.97918945 15.56186523 -100.97918945 15.56186523 -101.40429688 14.54101562 C-103.14283256 10.5004189 -105.20317397 7.37210315 -108 4 C-108 3.34 -108 2.68 -108 2 C-108.99 1.67 -109.98 1.34 -111 1 C-111 0.34 -111 -0.32 -111 -1 C-104.07 -1 -97.14 -1 -90 -1 C-90 -0.34 -90 0.32 -90 1 C-90.99 1.495 -90.99 1.495 -92 2 C-91.45184949 6.87792365 -90.43183209 10.96700208 -88.5625 15.5 C-88.30952148 16.1172998 -88.05654297 16.73459961 -87.79589844 17.37060547 C-84.02234676 26.49258458 -80.02386706 35.52319174 -76.04980469 44.55908203 C-74.98992178 47.02343303 -73.9854964 49.50507945 -73 52 C-70.84003375 49.25305235 -69.12804462 46.51602673 -67.546875 43.40234375 C-67.09618652 42.52360596 -66.64549805 41.64486816 -66.18115234 40.73950195 C-65.70887207 39.81484131 -65.2365918 38.89018066 -64.75 37.9375 C-56.09851114 21.26828424 -47.75283051 5.49468756 -29.0546875 -1.02734375 C-19.00325351 -3.87481265 -9.58890904 -4.42565032 0 0 Z " fill="#F8A40D" transform="translate(260,140)"/>
<path d="M0 0 C0.50379008 10.41166163 -1.90858042 18.53766861 -8 27 C-8.7425 28.0725 -9.485 29.145 -10.25 30.25 C-14.41063132 34.41063132 -18.67725605 36.79757429 -24.62890625 37.16015625 C-29.82376766 36.84273551 -33.41649004 36.03144871 -37 32 C-39.5261396 26.70499564 -39.75726647 21.76883895 -39 16 C-35.42974926 8.72218119 -27.30398585 6.51203849 -20 4 C-6.50002829 -0.31947209 -6.50002829 -0.31947209 0 0 Z " fill="#E0FD55" transform="translate(260,167)"/>
<path d="M0 0 C-1.9375 0.5625 -1.9375 0.5625 -4 1 C-4.495 0.505 -4.495 0.505 -5 0 C-7.86267567 -0.07325168 -10.700719 -0.09238205 -13.5625 -0.0625 C-14.36880859 -0.05798828 -15.17511719 -0.05347656 -16.00585938 -0.04882812 C-18.00393756 -0.03700518 -20.00197783 -0.01906914 -22 0 C-17.545 0.99 -17.545 0.99 -13 2 C-13 2.33 -13 2.66 -13 3 C-13.78761719 3.01417969 -14.57523438 3.02835938 -15.38671875 3.04296875 C-25.46595367 3.48430803 -35.43194578 5.31983609 -43.1875 12.25 C-53.81146764 24.22974594 -60.10208043 40.11745557 -66.79736328 54.44824219 C-69.10529247 59.34521253 -71.54178556 64.17692104 -74 69 C-75.03089037 66.32341115 -75.09652951 65.24838692 -74.0390625 62.52734375 C-73.57242188 61.67269531 -73.10578125 60.81804687 -72.625 59.9375 C-71.18619055 57.26485117 -69.9621546 54.88646379 -69 52 C-69.66 52 -70.32 52 -71 52 C-69.41542477 46.56341869 -66.96253341 41.78568828 -64.3125 36.8125 C-63.86334229 35.96824463 -63.41418457 35.12398926 -62.95141602 34.25415039 C-54.6646363 18.81996761 -46.34412331 5.00332152 -29.0546875 -1.02734375 C-19.00325351 -3.87481265 -9.58890904 -4.42565032 0 0 Z " fill="#EBAF15" transform="translate(260,140)"/>
<path d="M0 0 C0.59765625 2.8359375 0.59765625 2.8359375 1.0625 6.375 C1.51516268 9.7493945 1.92283301 12.76849904 3 16 C3.99 16.66 4.98 17.32 6 18 C6 18.99 6 19.98 6 21 C10.51815281 21.88277755 14.77512694 22.10589503 19.375 22.0625 C20.62023437 22.05347656 21.86546875 22.04445312 23.1484375 22.03515625 C24.08945313 22.02355469 25.03046875 22.01195312 26 22 C25 25 25 25 22.77734375 26.16796875 C13.57414095 29.47200717 7.38457258 30.19665367 -1.79296875 26.20703125 C-5.30758018 24.28488093 -7.38287745 21.98570726 -8.57421875 18.15234375 C-9.58774859 13.02890393 -9.76920175 7.84608419 -7.75 3 C-5.38867335 0.30134097 -3.48699703 -1.74349851 0 0 Z " fill="#F9A20C" transform="translate(219,182)"/>
<path d="M0 0 C5.37995907 4.41481544 7.31012525 9.75046125 9.8125 16.125 C10.68701271 18.29056143 11.56201888 20.45592364 12.4375 22.62109375 C12.86804688 23.6972998 13.29859375 24.77350586 13.7421875 25.88232422 C15.21978629 29.54477308 16.75267845 33.18119646 18.30151367 36.81396484 C19.59651813 39.85430132 20.86790416 42.90426449 22.13916016 45.95458984 C22.94495309 47.86920504 23.7730122 49.77265108 24.60546875 51.67578125 C27.46351092 58.48864927 29.31786927 64.58088411 28 72 C25.80289019 76.47559406 23.01700369 79.09883067 19 82 C18.34 81.67 17.68 81.34 17 81 C19.21928194 78.09197539 20.92969143 76.04687238 24 74 C24.495 72.515 24.495 72.515 25 71 C25.66 71 26.32 71 27 71 C26.57424494 68.76856035 26.13389613 66.53990225 25.6875 64.3125 C25.44386719 63.07113281 25.20023438 61.82976562 24.94921875 60.55078125 C24.04110318 57.15375635 22.86225019 54.93832615 21 52 C20.2265625 49.67578125 20.2265625 49.67578125 19.625 47.3125 C18.31241129 42.60964206 16.37032057 38.57535086 13.98828125 34.32421875 C12.87674334 31.71012761 12.81585639 29.81192274 13 27 C12.34 27 11.68 27 11 27 C11 25.35 11 23.7 11 22 C10.34 22 9.68 22 9 22 C9 20.68 9 19.36 9 18 C8.34 18 7.68 18 7 18 C5.82923301 14.01939223 4.74250597 10.08378283 4 6 C3.34 6 2.68 6 2 6 C2 5.34 2 4.68 2 4 C1.34 4 0.68 4 0 4 C0 2.68 0 1.36 0 0 Z " fill="#F2ED49" transform="translate(152,144)"/>
<path d="M0 0 C0.33 0 0.66 0 1 0 C1.20625 1.03125 1.4125 2.0625 1.625 3.125 C3.41535542 10.35082296 6.7741214 17.11962583 9.85327148 23.87084961 C11.61382358 27.80751692 12.31671727 30.67153061 12 35 C12.99 35 13.98 35 15 35 C13.04198104 43.26719117 7.19013532 50.37260425 1 56 C0.67 55.67 0.34 55.34 0 55 C-1.68183948 54.76712992 -3.3712416 54.58735834 -5.0625 54.4375 C-5.98160156 54.35371094 -6.90070313 54.26992187 -7.84765625 54.18359375 C-8.91306641 54.09271484 -8.91306641 54.09271484 -10 54 C-10 53.67 -10 53.34 -10 53 C-9.41992188 52.90203125 -8.83984375 52.8040625 -8.2421875 52.703125 C-1.6226528 51.43601935 2.6996974 49.48190543 7.375 44.4375 C10.10444602 38.66367187 9.89050743 32.9290266 8.04003906 26.8425293 C6.75006929 23.563482 5.37481451 20.34212162 3.9375 17.125 C2.97652158 14.94525081 2.02678703 12.76050047 1.08984375 10.5703125 C0.66566162 9.61914551 0.24147949 8.66797852 -0.19555664 7.68798828 C-1.09621478 4.67850541 -0.87366437 2.98121478 0 0 Z " fill="#EAAE14" transform="translate(170,175)"/>
<path d="M0 0 C0.99257812 0.25394531 1.98515625 0.50789063 3.0078125 0.76953125 C6.62247772 1.69013359 10.24443157 2.57919982 13.86767578 3.46533203 C15.70930128 3.92710898 17.54132867 4.42685696 19.37109375 4.93359375 C34.54790236 8.81603316 50.74660811 8.43190644 65.72265625 3.97265625 C68.81457787 3.05502993 71.81172698 2.4610136 75 2 C74.34 2.33 73.68 2.66 73 3 C73 3.66 73 4.32 73 5 C62.45225877 8.83316093 52.78216635 9.62998741 41.62304688 9.52148438 C39.00296526 9.50002429 36.38562435 9.52140006 33.765625 9.546875 C23.50417251 9.56139318 14.68331289 8.51901851 5 5 C5 4.34 5 3.68 5 3 C2.525 2.01 2.525 2.01 0 1 C0 0.67 0 0.34 0 0 Z " fill="#FBFEDA" transform="translate(171,272)"/>
<path d="M0 0 C0.66 1.32 1.32 2.64 2 4 C1.34 4 0.68 4 0 4 C0.33 4.66 0.66 5.32 1 6 C1.12389818 8.24745534 1.1756285 10.49916342 1.1875 12.75 C1.20167969 13.96171875 1.21585937 15.1734375 1.23046875 16.421875 C1.00241822 19.96245618 0.27784652 22.70689355 -1 26 C-0.34 26 0.32 26 1 26 C1 33.26 1 40.52 1 48 C0.67 48 0.34 48 0 48 C-0.33 42.06 -0.66 36.12 -1 30 C-3.475 34.455 -3.475 34.455 -6 39 C-6.495 37.515 -6.495 37.515 -7 36 C-7.99 35.67 -8.98 35.34 -10 35 C-9.54753906 34.58105469 -9.09507812 34.16210938 -8.62890625 33.73046875 C-1.95244514 26.63772949 -0.81488911 16.2640025 0 7 C-0.61875 6.87625 -1.2375 6.7525 -1.875 6.625 C-4 6 -4 6 -6 4 C-4.02 3.67 -2.04 3.34 0 3 C0 2.01 0 1.02 0 0 Z " fill="#ECB71D" transform="translate(260,160)"/>
<path d="M0 0 C1.65 0 3.3 0 5 0 C5.33 0.99 5.66 1.98 6 3 C7.1446875 3.5878125 7.1446875 3.5878125 8.3125 4.1875 C12.11307873 6.75068101 13.51647464 9.70805529 15 14 C15.53375855 17.68716609 15.53476205 21.31440202 15.50390625 25.03515625 C15.51332748 26.07264511 15.52274872 27.11013397 15.53245544 28.17906189 C15.56097903 31.47374497 15.56418803 34.76770377 15.5625 38.0625 C15.56611519 41.36076042 15.57571771 44.65849807 15.60325623 47.95664978 C15.61996128 50.00228806 15.62298635 52.04809845 15.61024475 54.09376526 C15.65260092 59.8450024 16.32121763 63.88732972 19 69 C17.68 68.67 16.36 68.34 15 68 C14.20453584 65.18201665 13.86447834 62.65023908 13.82641602 59.72558594 C13.81292618 58.89081726 13.79943634 58.05604858 13.78553772 57.19598389 C13.76988014 55.85373749 13.76988014 55.85373749 13.75390625 54.484375 C13.72095853 52.57421433 13.68774705 50.66405819 13.65429688 48.75390625 C13.60699344 45.75442714 13.56256517 42.75496518 13.52319336 39.75537109 C13.48323906 36.85234458 13.43174537 33.94969172 13.37890625 31.046875 C13.3704921 30.16014099 13.36207794 29.27340698 13.35340881 28.35980225 C13.1970842 20.4000651 12.13004092 12.40865295 7 6 C4.75774897 4.1338685 2.44889939 2.60120345 0 1 C0 0.67 0 0.34 0 0 Z " fill="#F3F24C" transform="translate(258,139)"/>
<path d="M0 0 C0.33 0 0.66 0 1 0 C1.80156101 18.88971008 0.74614465 38.73686733 -8 56 C-8.99 56.495 -8.99 56.495 -10 57 C-11.05352843 59.30965848 -12.05719096 61.6429774 -13 64 C-14 62 -14 62 -13.22265625 59.6171875 C-12.83980469 58.71226562 -12.45695312 57.80734375 -12.0625 56.875 C-11.49208984 55.50988281 -11.49208984 55.50988281 -10.91015625 54.1171875 C-10.60980469 53.41851562 -10.30945313 52.71984375 -10 52 C-9.34 52 -8.68 52 -8 52 C-7.896875 51.113125 -7.79375 50.22625 -7.6875 49.3125 C-5.42758413 33.42758413 -5.42758413 33.42758413 -3 31 C-0.53565597 20.87308625 -0.41191184 10.36283477 0 0 Z " fill="#E3F87F" transform="translate(309,168)"/>
<path d="M0 0 C0 0.66 0 1.32 0 2 C-0.99 2 -1.98 2 -3 2 C-3.33 3.65 -3.66 5.3 -4 7 C-4.99 7 -5.98 7 -7 7 C-6.91276622 8.77174819 -6.80458345 10.54247377 -6.6875 12.3125 C-6.62949219 13.29863281 -6.57148438 14.28476563 -6.51171875 15.30078125 C-5.93837286 18.32507141 -5.24761486 19.02972579 -3 21 C-2.67 21.99 -2.34 22.98 -2 24 C2.13877235 26.06938617 7.22040799 25.46097865 11.59375 24.328125 C13.75367656 23.60359267 15.88288401 22.84084039 18 22 C14.42063524 25.80374285 10.73960375 27.88460327 5.49609375 28.10546875 C0.24402786 27.76889821 -3.36261393 27.09205933 -7 23 C-9.50408847 17.75121669 -9.84628665 12.7229087 -9 7 C-7.09575568 3.35432778 -4.37488858 0 0 0 Z " fill="#F1EF4A" transform="translate(230,176)"/>
<path d="M0 0 C-0.9178125 0.31453125 -1.835625 0.6290625 -2.78125 0.953125 C-10.59386051 3.67769085 -18.06815866 6.37877244 -25 11 C-25.763125 11.28875 -26.52625 11.5775 -27.3125 11.875 C-31.43546705 13.60089318 -34.91801709 15.81330906 -37.9375 19.125 C-40.69442966 21.63129969 -43.41739503 22.17324501 -47 23 C-41.22701749 17.05722389 -35.91802377 12.71584281 -28.3671875 9.2109375 C-26.00518805 8.11112901 -26.00518805 8.11112901 -24.2578125 6.5546875 C-20.79547165 4.17058429 -16.97183455 3.05702543 -13 1.75 C-12.19304687 1.46898438 -11.38609375 1.18796875 -10.5546875 0.8984375 C-9.77351563 0.63804688 -8.99234375 0.37765625 -8.1875 0.109375 C-7.47980469 -0.12813477 -6.77210938 -0.36564453 -6.04296875 -0.61035156 C-3.71131237 -1.0550604 -2.23564476 -0.73223646 0 0 Z " fill="#E1F972" transform="translate(191,83)"/>
<path d="M0 0 C5.91263457 5.91263457 5.32641356 19.52298499 5.32873535 27.53619385 C5.31792254 28.9403552 5.30210381 30.34448703 5.28125 31.74853516 C5.24930386 33.92237 5.24018408 36.09548194 5.234375 38.26953125 C5.16471234 48.83528766 5.16471234 48.83528766 4 50 C3.60545777 51.84599688 3.25823134 53.70225822 2.9375 55.5625 C2.76089844 56.57441406 2.58429688 57.58632812 2.40234375 58.62890625 C2.26957031 59.41136719 2.13679688 60.19382813 2 61 C0.515 61.495 0.515 61.495 -1 62 C-0.71125 60.8346875 -0.4225 59.669375 -0.125 58.46875 C3.83542058 41.42501746 5.24306944 23.68253627 0.65625 6.609375 C0 4 0 4 0 0 Z " fill="#FAFED5" transform="translate(306,150)"/>
<path d="M0 0 C0.49550382 10.24041232 -1.75348436 18.75383758 -8 27 C-8.98015755 28.01945632 -9.97499359 29.02564798 -11 30 C-10.625 27.5625 -10.625 27.5625 -10 25 C-9.34 24.67 -8.68 24.34 -8 24 C-3.81572613 17.26593424 -2.90815392 9.73125775 -2 2 C-3.65 2 -5.3 2 -7 2 C-7 2.66 -7 3.32 -7 4 C-9.24743045 4.53181175 -11.49807102 5.05007126 -13.75 5.5625 C-15.62945312 5.99755859 -15.62945312 5.99755859 -17.546875 6.44140625 C-20.59473748 6.93444283 -22.17641828 7.07666879 -25 6 C-22.41710408 5.18608745 -19.83371003 4.37382071 -17.25 3.5625 C-16.52039063 3.33240234 -15.79078125 3.10230469 -15.0390625 2.86523438 C-14.33007812 2.64287109 -13.62109375 2.42050781 -12.890625 2.19140625 C-12.24125977 1.98717041 -11.59189453 1.78293457 -10.92285156 1.57250977 C-7.14456216 0.44756199 -3.9665627 -0.1101823 0 0 Z " fill="#F3EF4A" transform="translate(260,167)"/>
<path d="M0 0 C5.75399044 3.58370561 5.75399044 3.58370561 6.8828125 6.98828125 C7.01623047 7.87773437 7.01623047 7.87773437 7.15234375 8.78515625 C5.83234375 8.12515625 4.51234375 7.46515625 3.15234375 6.78515625 C3.15234375 5.79515625 3.15234375 4.80515625 3.15234375 3.78515625 C2.34796875 3.64078125 1.54359375 3.49640625 0.71484375 3.34765625 C-1.84765625 2.78515625 -1.84765625 2.78515625 -2.84765625 1.78515625 C-5.50588282 1.65857403 -8.12653049 1.59995411 -10.78515625 1.59765625 C-11.52701172 1.58541016 -12.26886719 1.57316406 -13.03320312 1.56054688 C-14.97279254 1.55527147 -16.91189335 1.66326723 -18.84765625 1.78515625 C-19.50765625 2.44515625 -20.16765625 3.10515625 -20.84765625 3.78515625 C-22.70390625 4.15640625 -22.70390625 4.15640625 -24.59765625 4.53515625 C-29.46838468 5.6195155 -31.62432792 8.07832867 -34.84765625 11.78515625 C-35.50765625 11.45515625 -36.16765625 11.12515625 -36.84765625 10.78515625 C-28.5725353 0.34345818 -12.73717899 -5.43383082 0 0 Z " fill="#F2EE4A" transform="translate(250.84765625,144.21484375)"/>
<path d="M0 0 C6.93 0 13.86 0 21 0 C21 0.66 21 1.32 21 2 C20.01 2.495 20.01 2.495 19 3 C19.64270983 8.9129304 21.19003784 14.34244531 23 20 C22.34 20 21.68 20 21 20 C20.32187886 18.1291122 19.6580054 16.25305707 19 14.375 C18.443125 12.80878906 18.443125 12.80878906 17.875 11.2109375 C16.99516436 7.98225494 16.84011738 5.32755706 17 2 C13.37 2 9.74 2 6 2 C6.33 3.98 6.66 5.96 7 8 C7.66 8 8.32 8 9 8 C8.67 9.32 8.34 10.64 8 12 C7.16094435 10.87926138 6.32892169 9.75325453 5.5 8.625 C4.80390625 7.68527344 4.80390625 7.68527344 4.09375 6.7265625 C3 5 3 5 3 3 C2.01 2.67 1.02 2.34 0 2 C0 1.34 0 0.68 0 0 Z " fill="#EDAB12" transform="translate(149,139)"/>
<path d="M0 0 C-8.86537673 4.68744057 -17.71138844 5.28558656 -27.5625 5.3125 C-28.51938721 5.31781738 -29.47627441 5.32313477 -30.4621582 5.32861328 C-37.1511322 5.26338849 -43.46159508 4.39147197 -50 3 C-50 2.67 -50 2.34 -50 2 C-48.04174127 1.97305149 -46.08337774 1.95362782 -44.125 1.9375 C-43.03445312 1.92589844 -41.94390625 1.91429687 -40.8203125 1.90234375 C-38 2 -38 2 -36 3 C-34.04450744 3.12257461 -32.08429382 3.17552388 -30.125 3.1875 C-29.07570312 3.20167969 -28.02640625 3.21585937 -26.9453125 3.23046875 C-23.99396097 2.99952745 -22.56495511 2.34329608 -20 1 C-17.81640625 0.83984375 -17.81640625 0.83984375 -15.5625 0.9375 C-10.27806446 1.06702048 -5.3060055 -0.12339548 0 0 Z " fill="#E3F97B" transform="translate(240,275)"/>
<path d="M0 0 C1.38638672 -0.0309375 1.38638672 -0.0309375 2.80078125 -0.0625 C3.68894531 -0.06765625 4.57710937 -0.0728125 5.4921875 -0.078125 C6.30800293 -0.0874707 7.12381836 -0.09681641 7.96435547 -0.10644531 C10.59594179 0.32769209 11.4641242 1.21996624 13.125 3.25 C12.5990625 4.3328125 12.5990625 4.3328125 12.0625 5.4375 C10.99997827 8.62506518 11.38518357 10.04412881 12.125 13.25 C11.83486562 14.5933953 11.50735757 15.92988956 11.125 17.25 C7.49629841 8.988041 7.49629841 8.988041 9.125 4.25 C9.785 4.25 10.445 4.25 11.125 4.25 C11.125 3.59 11.125 2.93 11.125 2.25 C4.195 2.25 -2.735 2.25 -9.875 2.25 C-8.885 3.24 -7.895 4.23 -6.875 5.25 C-6.875 5.91 -6.875 6.57 -6.875 7.25 C-8.195 6.92 -9.515 6.59 -10.875 6.25 C-10.917721 4.58388095 -10.91563832 2.91617115 -10.875 1.25 C-8.5728275 -1.0521725 -3.09057726 0.01709863 0 0 Z " fill="#F2ED4A" transform="translate(158.875,136.75)"/>
<path d="M0 0 C0.66 0.33 1.32 0.66 2 1 C1.49210937 1.43828125 0.98421875 1.8765625 0.4609375 2.328125 C-4.74031814 7.12029312 -7.65363586 11.8232216 -10.62109375 18.2109375 C-12.35778935 21.72368724 -14.23678125 24.23678125 -17 27 C-17.66 27 -18.32 27 -19 27 C-19.33 28.65 -19.66 30.3 -20 32 C-20.66 32 -21.32 32 -22 32 C-20.71944214 26.52979089 -18.7821277 22.65496539 -15.5 18.125 C-15.09652344 17.54492188 -14.69304687 16.96484375 -14.27734375 16.3671875 C-11.28732482 12.14366241 -11.28732482 12.14366241 -9 11 C-8.5875 10.278125 -8.175 9.55625 -7.75 8.8125 C-5.56514542 5.30112656 -2.98739576 2.85462261 0 0 Z " fill="#E4F980" transform="translate(142,106)"/>
<path d="M0 0 C0.33 0 0.66 0 1 0 C1.00410889 0.8751123 1.00821777 1.75022461 1.01245117 2.65185547 C1.14722548 19.05981928 1.399098 34.38377791 7 50 C7.70055048 52.32519533 8.35231194 54.65928546 9 57 C8.34 56.67 7.68 56.34 7 56 C7 55.34 7 54.68 7 54 C6.34 54 5.68 54 5 54 C4.53916965 52.50076525 4.08149574 51.00056026 3.625 49.5 C3.36976562 48.6646875 3.11453125 47.829375 2.8515625 46.96875 C0.9039848 40.17902957 -0.29285457 34.39456694 -0.1953125 27.34375 C-0.1924826 26.55601196 -0.18965271 25.76827393 -0.18673706 24.95666504 C-0.17565169 22.47094736 -0.1505701 19.9856065 -0.125 17.5 C-0.1149551 15.80208858 -0.10583191 14.10417145 -0.09765625 12.40625 C-0.07575071 8.27069086 -0.04130326 4.13540904 0 0 Z " fill="#F1FCB4" transform="translate(110,164)"/>
<path d="M0 0 C0.33 0 0.66 0 1 0 C1.02505615 1.28165039 1.0501123 2.56330078 1.07592773 3.88378906 C1.17011595 8.6399125 1.2703089 13.39589379 1.37231445 18.15185547 C1.41562009 20.21008987 1.45729829 22.26835918 1.49731445 24.32666016 C1.55512275 27.28558879 1.61878696 30.2443424 1.68359375 33.203125 C1.70030624 34.12305237 1.71701874 35.04297974 1.73423767 35.99078369 C1.75418289 36.8513739 1.77412811 37.71196411 1.79467773 38.59863281 C1.81022202 39.35364075 1.8257663 40.10864868 1.84178162 40.88653564 C2.00618508 43.0826196 2.22055687 44.93500017 3 47 C3.99 47.33 4.98 47.66 6 48 C6 48.99 6 49.98 6 51 C1.05 51 -3.9 51 -9 51 C-9.33 50.34 -9.66 49.68 -10 49 C-6.37 49 -2.74 49 1 49 C0.67 47.68 0.34 46.36 0 45 C-0.08384385 43.47351214 -0.11781972 41.94382176 -0.11352539 40.41503906 C-0.11344986 39.51440735 -0.11337433 38.61377563 -0.11329651 37.68585205 C-0.10813522 36.72217712 -0.10297394 35.7585022 -0.09765625 34.765625 C-0.0962413 33.77246277 -0.09482635 32.77930054 -0.09336853 31.75604248 C-0.08777588 28.58733088 -0.0752247 25.41869021 -0.0625 22.25 C-0.05748405 20.10026144 -0.05292131 17.95052177 -0.04882812 15.80078125 C-0.03780886 10.53383001 -0.021078 5.26692007 0 0 Z " fill="#E9C024" transform="translate(271,160)"/>
<path d="M0 0 C0.66 0 1.32 0 2 0 C3.31626692 3.61973402 4 6.09567131 4 10 C4.66 10 5.32 10 6 10 C7.33333333 14 8.66666667 18 10 22 C10.66 22 11.32 22 12 22 C12.83848804 23.45537568 13.67063934 24.91440373 14.5 26.375 C14.9640625 27.18710938 15.428125 27.99921875 15.90625 28.8359375 C17 31 17 31 17 33 C17.66 33 18.32 33 19 33 C19.33 34.32 19.66 35.64 20 37 C15.31326373 34.9170061 13.79393923 32.28595007 11.69921875 27.83984375 C11 26 11 26 11 24 C10.01 23.67 9.02 23.34 8 23 C6.92504883 21.09814453 6.92504883 21.09814453 5.95703125 18.6328125 C5.60576172 17.74722656 5.25449219 16.86164063 4.89257812 15.94921875 C4.53615234 15.01722656 4.17972656 14.08523437 3.8125 13.125 C3.44447266 12.20074219 3.07644531 11.27648437 2.69726562 10.32421875 C0 3.42842648 0 3.42842648 0 0 Z " fill="#E3F87D" transform="translate(115,208)"/>
<path d="M0 0 C1.32 0.33 2.64 0.66 4 1 C3.175 1.886875 2.35 2.77375 1.5 3.6875 C-5.92039567 12.36796286 -11.12160199 22.7442769 -16 33 C-17.41128754 28.40834617 -16.11300128 25.22600255 -14 21 C-13.34 21 -12.68 21 -12 21 C-11.67 19.35 -11.34 17.7 -11 16 C-10.34 16 -9.68 16 -9 16 C-8.566875 14.88625 -8.566875 14.88625 -8.125 13.75 C-6.25949504 9.18987676 -4.49807549 6.49807549 -1 3 C-0.67 2.01 -0.34 1.02 0 0 Z " fill="#F2F04C" transform="translate(211,148)"/>
<path d="M0 0 C2.4294516 3.6441774 2.16179575 5.71241272 2 10 C-2.24482343 11.37077999 -6.49656011 12.71871809 -10.75 14.0625 C-11.9565625 14.45244141 -13.163125 14.84238281 -14.40625 15.24414062 C-16.14648438 15.79038086 -16.14648438 15.79038086 -17.921875 16.34765625 C-18.99018555 16.68804932 -20.05849609 17.02844238 -21.15917969 17.37915039 C-23.95652367 17.99049843 -25.35587428 17.98457424 -28 17 C-23.22228283 14.21299832 -18.42417737 13.02775533 -13.05859375 11.76171875 C-8.94571365 10.73743827 -4.99910086 9.3996853 -1 8 C-0.67 5.36 -0.34 2.72 0 0 Z " fill="#F4EF4B" transform="translate(258,153)"/>
<path d="M0 0 C4.64521755 2.71915174 7.67926771 5.80093287 11.13671875 9.90234375 C15.13678922 14.40556774 19.48942178 18.48297314 25 21 C22 22 22 22 19.9921875 21.07421875 C19.29351562 20.61660156 18.59484375 20.15898437 17.875 19.6875 C17.17117187 19.23761719 16.46734375 18.78773438 15.7421875 18.32421875 C14 17 14 17 13 15 C12.154375 14.525625 11.30875 14.05125 10.4375 13.5625 C9.633125 13.046875 8.82875 12.53125 8 12 C8 11.01 8 10.02 8 9 C7.4225 8.773125 6.845 8.54625 6.25 8.3125 C3.40260191 6.65151778 1.87932807 4.68475439 0 2 C0 1.34 0 0.68 0 0 Z " fill="#FAFED9" transform="translate(130,242)"/>
<path d="M0 0 C3.98574776 3.67108346 6.70607787 6.46372606 7.16851807 12.02749634 C7.23150778 14.50672293 7.22470157 16.97718165 7.1953125 19.45703125 C7.1924826 20.35999435 7.18965271 21.26295746 7.18673706 22.19328308 C7.17557607 25.06649234 7.15047897 27.93938555 7.125 30.8125 C7.11496493 32.76496944 7.10584 34.71744379 7.09765625 36.66992188 C7.07565008 41.44673566 7.04114831 46.22331431 7 51 C6.67 51 6.34 51 6 51 C5.98018066 49.89076172 5.96036133 48.78152344 5.93994141 47.63867188 C5.86343531 43.49359782 5.77478996 39.34885438 5.68261719 35.20410156 C5.64451233 33.41575687 5.60962838 31.62734035 5.578125 29.83886719 C5.53206987 27.25690165 5.47414572 24.67542275 5.4140625 22.09375 C5.40251129 21.30383667 5.39096008 20.51392334 5.37905884 19.70007324 C5.24373468 14.52277554 4.4151767 9.98539439 3 5 C2.34 5 1.68 5 1 5 C0.67 3.35 0.34 1.7 0 0 Z " fill="#E9AC13" transform="translate(264,144)"/>
<path d="M0 0 C6.18541449 2.51998368 10.40154573 8.46575051 14.8125 13.3125 C15.56563477 14.13717773 15.56563477 14.13717773 16.33398438 14.97851562 C17.55703968 16.31805239 18.77867008 17.65888992 20 19 C19.67 19.66 19.34 20.32 19 21 C18.51789063 20.57847656 18.03578125 20.15695313 17.5390625 19.72265625 C16.59160156 18.90087891 16.59160156 18.90087891 15.625 18.0625 C14.99851562 17.51722656 14.37203125 16.97195312 13.7265625 16.41015625 C12.04367666 14.93041376 12.04367666 14.93041376 10 14 C10 12.68 10 11.36 10 10 C9.01 10 8.02 10 7 10 C5.28859531 8.03814584 3.62126675 6.03697617 2 4 C1.34 3.67 0.68 3.34 0 3 C0 2.01 0 1.02 0 0 Z " fill="#E6F988" transform="translate(272,102)"/>
<path d="M0 0 C0.66 0.33 1.32 0.66 2 1 C-3.27697282 5.95449115 -8.71811581 8.99377808 -15.4375 11.5 C-16.14777344 11.76699707 -16.85804688 12.03399414 -17.58984375 12.30908203 C-19.37009313 12.94201204 -21.1837586 13.47927414 -23 14 C-23.66 13.67 -24.32 13.34 -25 13 C-20.15939723 9.93757784 -16.70709064 8.46588495 -11 8 C-11 7.34 -11 6.68 -11 6 C-9.68 5.67 -8.36 5.34 -7 5 C-7 4.34 -7 3.68 -7 3 C-5.5459375 2.5359375 -5.5459375 2.5359375 -4.0625 2.0625 C-1.15934208 1.30476658 -1.15934208 1.30476658 0 0 Z " fill="#E4F983" transform="translate(265,261)"/>
<path d="M0 0 C0.33 0 0.66 0 1 0 C1 2.31 1 4.62 1 7 C3.06132142 7.10864945 5.12431321 7.18588321 7.1875 7.25 C8.91033203 7.31960937 8.91033203 7.31960937 10.66796875 7.390625 C14.60353399 6.92924572 16.17745787 5.70028512 19 3 C20.32 3.66 21.64 4.32 23 5 C15.72661862 9.74996335 8.48114413 9.89166063 0 9 C-0.66 8.34 -1.32 7.68 -2 7 C-1.43181818 1.43181818 -1.43181818 1.43181818 0 0 Z " fill="#EBAD13" transform="translate(145,229)"/>
<path d="M0 0 C0.99 0.33 1.98 0.66 3 1 C1.46627254 3.82528742 0.06725582 5.93819735 -2.3125 8.125 C-5.53140774 11.5684827 -7.42842615 15.2051223 -9.5703125 19.37890625 C-10.87964067 21.77934123 -12.3011519 23.86387443 -14 26 C-14 24.35 -14 22.7 -14 21 C-13.34 21 -12.68 21 -12 21 C-11.87625 20.278125 -11.7525 19.55625 -11.625 18.8125 C-11.0095069 16.04278106 -10.11555626 13.6029646 -9 11 C-8.34 11 -7.68 11 -7 11 C-7 10.34 -7 9.68 -7 9 C-6.34 8.67 -5.68 8.34 -5 8 C-4.67 7.01 -4.34 6.02 -4 5 C-3.01 4.67 -2.02 4.34 -1 4 C-0.26676204 1.98491642 -0.26676204 1.98491642 0 0 Z " fill="#F9FED7" transform="translate(133,112)"/>
<path d="M0 0 C0.33 0.66 0.66 1.32 1 2 C0.33605067 3.74723508 -0.3348484 5.49200667 -1.03125 7.2265625 C-3.16483145 13.33479972 -4.49680502 19.71252455 -6 26 C-6.33 26 -6.66 26 -7 26 C-7.87236565 16.15196108 -5.48449839 8.22674759 0 0 Z " fill="#F6FEC8" transform="translate(118,138)"/>
<path d="M0 0 C0.66 0 1.32 0 2 0 C1.42655063 2.86724686 1.1385485 3.8614515 -1 6 C-5.89083779 8.10026968 -10.16321979 8.24751925 -15.375 8.125 C-16.47908203 8.11146484 -16.47908203 8.11146484 -17.60546875 8.09765625 C-19.4037888 8.07430144 -21.20193911 8.03843836 -23 8 C-23 7.67 -23 7.34 -23 7 C-22.154375 6.97421875 -21.30875 6.9484375 -20.4375 6.921875 C-12.45807914 6.52290396 -5.90139486 5.90139486 0 0 Z " fill="#F3E744" transform="translate(170,231)"/>
<path d="M0 0 C0.33 0 0.66 0 1 0 C1.33 7.26 1.66 14.52 2 22 C1.34 22 0.68 22 0 22 C0 17.38 0 12.76 0 8 C-2.94729537 10.63106761 -2.94729537 10.63106761 -4 13 C-4.66 13 -5.32 13 -6 13 C-4.31326082 8.50202887 -2.18326108 4.27113698 0 0 Z " fill="#F7EF4C" transform="translate(259,188)"/>
<path d="M0 0 C-0.66 1.32 -1.32 2.64 -2 4 C-8.6 3.67 -15.2 3.34 -22 3 C-22.33 2.34 -22.66 1.68 -23 1 C-21.58847656 1.03480469 -21.58847656 1.03480469 -20.1484375 1.0703125 C-18.90320313 1.08835938 -17.65796875 1.10640625 -16.375 1.125 C-14.53035156 1.15980469 -14.53035156 1.15980469 -12.6484375 1.1953125 C-7.97111917 0.94492073 -4.45103536 -1.48367845 0 0 Z " fill="#EFEF49" transform="translate(244,210)"/>
<path d="M0 0 C6.80396289 1.33121013 11.51863821 4.87519254 17 9 C14.46100862 9.9435441 13.39090725 10.16906025 10.859375 9.07421875 C10.16328125 8.61660156 9.4671875 8.15898438 8.75 7.6875 C8.04359375 7.23761719 7.3371875 6.78773437 6.609375 6.32421875 C6.07828125 5.88722656 5.5471875 5.45023437 5 5 C5 4.34 5 3.68 5 3 C4.360625 2.87625 3.72125 2.7525 3.0625 2.625 C2.381875 2.41875 1.70125 2.2125 1 2 C0.67 1.34 0.34 0.68 0 0 Z " fill="#E2F87B" transform="translate(255,92)"/>
<path d="M0 0 C0.66 0 1.32 0 2 0 C0.43358249 4.30764815 -1.68336156 8.06171464 -4 12 C-6.52259061 10.02579865 -6.9929808 9.03254358 -7.6875 5.8125 C-7.790625 4.884375 -7.89375 3.95625 -8 3 C-6.68 4.32 -5.36 5.64 -4 7 C-3.67 6.01 -3.34 5.02 -3 4 C-2.34 4 -1.68 4 -1 4 C-0.67 2.68 -0.34 1.36 0 0 Z " fill="#F3EF4B" transform="translate(192,181)"/>
<path d="M0 0 C0.99 0.33 1.98 0.66 3 1 C2.67 1.99 2.34 2.98 2 4 C1.93029948 6.39490986 1.91551997 8.79167691 1.9375 11.1875 C1.94652344 12.45980469 1.95554688 13.73210937 1.96484375 15.04296875 C1.97644531 16.01878906 1.98804688 16.99460938 2 18 C0.515625 16.875 0.515625 16.875 -1 15 C-1.328125 12.1875 -1.328125 12.1875 -1.25 9 C-1.23453125 7.948125 -1.2190625 6.89625 -1.203125 5.8125 C-1 3 -1 3 0 0 Z " fill="#F1ED49" transform="translate(209,184)"/>
<path d="M0 0 C-0.88042969 0.44730469 -1.76085937 0.89460937 -2.66796875 1.35546875 C-4.41013672 2.26232422 -4.41013672 2.26232422 -6.1875 3.1875 C-7.91033203 4.07501953 -7.91033203 4.07501953 -9.66796875 4.98046875 C-13.10391592 7.06298303 -15.30945254 9.06623921 -18 12 C-17.70100785 8.41209425 -17.23013399 7.21833224 -14.5625 4.6875 C-12 3 -12 3 -10 3 C-10 2.34 -10 1.68 -10 1 C-3.375 -1.125 -3.375 -1.125 0 0 Z " fill="#F3EA48" transform="translate(230,172)"/>
<path d="M0 0 C-0.95261719 0.33773437 -1.90523437 0.67546875 -2.88671875 1.0234375 C-4.1536641 1.47390696 -5.42059016 1.92443067 -6.6875 2.375 C-7.92886719 2.81585938 -9.17023438 3.25671875 -10.44921875 3.7109375 C-13.89212513 4.90918751 -13.89212513 4.90918751 -16.70703125 6.2265625 C-19.28267552 7.09534881 -20.4860494 6.93109281 -23 6 C-18.07605257 3.97491097 -13.13587124 1.98841213 -8.125 0.1875 C-7.42632812 -0.06644531 -6.72765625 -0.32039063 -6.0078125 -0.58203125 C-3.68312819 -1.06596359 -2.23374906 -0.73623568 0 0 Z " fill="#E5F989" transform="translate(191,83)"/>
<path d="M0 0 C0.99 0 1.98 0 3 0 C1.74119423 5.03522309 0.18632058 7.00977102 -4 10 C-5.35147138 11.31494512 -6.69112542 12.64264858 -8 14 C-7.42437172 10.66135596 -6.40936384 9.30897368 -4 7 C-3.67 6.01 -3.34 5.02 -3 4 C-2.01 4 -1.02 4 0 4 C0 2.68 0 1.36 0 0 Z " fill="#E3F976" transform="translate(289,236)"/>
<path d="M0 0 C0.33 0 0.66 0 1 0 C1.02505615 0.58491211 1.0501123 1.16982422 1.07592773 1.77246094 C1.19222962 4.43184471 1.31480067 7.09090403 1.4375 9.75 C1.47681641 10.67039063 1.51613281 11.59078125 1.55664062 12.5390625 C1.59853516 13.42851562 1.64042969 14.31796875 1.68359375 15.234375 C1.72025146 16.05131836 1.75690918 16.86826172 1.79467773 17.70996094 C1.99134275 19.9034423 2.40300594 21.88396413 3 24 C4.65 24 6.3 24 8 24 C8 24.33 8 24.66 8 25 C2.25 25.125 2.25 25.125 0 24 C0 16.08 0 8.16 0 0 Z " fill="#EBAA0F" transform="translate(261,185)"/>
<path d="M0 0 C1.65 0 3.3 0 5 0 C8.25711277 5.77874846 9.69343615 10.37822074 10 17 C7.085189 14.085189 6.43847806 10.60231394 5.1953125 6.7265625 C3.89651426 3.7639443 2.40729875 2.12527211 0 0 Z " fill="#EDAC14" transform="translate(252,145)"/>
<path d="M0 0 C6.93 0 13.86 0 21 0 C21 0.66 21 1.32 21 2 C15.39 1.67 9.78 1.34 4 1 C4.33 2.65 4.66 4.3 5 6 C4.34 5.67 3.68 5.34 3 5 C3 4.34 3 3.68 3 3 C2.01 2.67 1.02 2.34 0 2 C0 1.34 0 0.68 0 0 Z " fill="#E0AF16" transform="translate(149,139)"/>
<path d="M0 0 C2.79828356 0.38597015 3.8205884 0.80136573 5.75 2.9375 C7 5 7 5 7 7 C8.32 7.33 9.64 7.66 11 8 C11 8.99 11 9.98 11 11 C7.584241 9.55661511 5.63973737 7.75105832 3.25 4.9375 C2.63640625 4.22464844 2.0228125 3.51179687 1.390625 2.77734375 C0 1 0 1 0 0 Z " fill="#E4F980" transform="translate(135,245)"/>
<path d="M0 0 C1 3 1 3 -0.4375 6.1875 C-1.2109375 7.5796875 -1.2109375 7.5796875 -2 9 C-2.66 9 -3.32 9 -4 9 C-4.433125 10.423125 -4.433125 10.423125 -4.875 11.875 C-6 15 -6 15 -8 17 C-8.33 16.34 -8.66 15.68 -9 15 C-7.7796615 12.56816603 -6.51503995 10.26895497 -5.125 7.9375 C-4.74730469 7.28716797 -4.36960938 6.63683594 -3.98046875 5.96679688 C-1.18268327 1.18268327 -1.18268327 1.18268327 0 0 Z " fill="#F2EF4B" transform="translate(213,156)"/>
<path d="M0 0 C2.60607392 0.61778047 5.20965697 1.24387211 7.8125 1.875 C8.55048828 2.04902344 9.28847656 2.22304688 10.04882812 2.40234375 C13.49717037 3.24492511 16.01928362 4.01285575 19 6 C12.07 5.505 12.07 5.505 5 5 C5 4.34 5 3.68 5 3 C2.525 2.01 2.525 2.01 0 1 C0 0.67 0 0.34 0 0 Z " fill="#F2FDB9" transform="translate(171,272)"/>
<path d="M0 0 C0.66 1.32 1.32 2.64 2 4 C0.02 6.97 -1.96 9.94 -4 13 C-4.99 12.34 -5.98 11.68 -7 11 C-6.21625 10.113125 -5.4325 9.22625 -4.625 8.3125 C-2.42843009 5.69279481 -1.06209659 3.28284399 0 0 Z " fill="#DEB61B" transform="translate(180,213)"/>
<path d="M0 0 C0.66 0.33 1.32 0.66 2 1 C0.23055495 2.46001748 -1.54060571 3.91795593 -3.3125 5.375 C-4.29863281 6.18710938 -5.28476563 6.99921875 -6.30078125 7.8359375 C-9 10 -9 10 -12 12 C-12 10.68 -12 9.36 -12 8 C-11.01 7.67 -10.02 7.34 -9 7 C-8.34 6.01 -7.68 5.02 -7 4 C-5.02477154 2.95191959 -3.02518491 1.9479589 -1 1 C-0.67 0.67 -0.34 0.34 0 0 Z " fill="#F8FED0" transform="translate(148,100)"/>
<path d="M0 0 C0.33 1.32 0.66 2.64 1 4 C0.34 4 -0.32 4 -1 4 C-1.0825 4.763125 -1.165 5.52625 -1.25 6.3125 C-2.14615794 9.52373261 -3.21611025 10.29374499 -6 12 C-6.66 11.67 -7.32 11.34 -8 11 C-5.36 7.37 -2.72 3.74 0 0 Z " fill="#F3ED48" transform="translate(180,219)"/>
<path d="M0 0 C1.25348607 2.95106435 1.01044806 3.97406463 -0.21484375 7.015625 C-1.06755859 8.61664063 -1.06755859 8.61664063 -1.9375 10.25 C-2.50339844 11.32765625 -3.06929687 12.4053125 -3.65234375 13.515625 C-4.09707031 14.33546875 -4.54179687 15.1553125 -5 16 C-5.66 16 -6.32 16 -7 16 C-5.35433477 10.31497465 -2.70967216 5.23318364 0 0 Z " fill="#F5EB47" transform="translate(195,189)"/>
<path d="M0 0 C0.66 0 1.32 0 2 0 C2.69670416 1.78810766 3.38211189 3.58062052 4.0625 5.375 C4.63677734 6.87160156 4.63677734 6.87160156 5.22265625 8.3984375 C6 11 6 11 5 13 C4.67 12.01 4.34 11.02 4 10 C3.34 10 2.68 10 2 10 C0.39644899 6.49223216 -0.22036864 3.85645121 0 0 Z " fill="#F6FDC6" transform="translate(113,208)"/>
<path d="M0 0 C4.28760234 3.4005122 5.96367838 7.74090992 7 13 C6.67 13.99 6.34 14.98 6 16 C4.99303432 13.89915791 3.9946411 11.79420511 3 9.6875 C2.443125 8.51574219 1.88625 7.34398437 1.3125 6.13671875 C0 3 0 3 0 0 Z " fill="#F3F14D" transform="translate(177,168)"/>
<path d="M0 0 C2.37682369 2.13714399 3.59931002 3.93778054 4.6875 6.9375 C4.93886719 7.60652344 5.19023437 8.27554688 5.44921875 8.96484375 C6 11 6 11 6 15 C5.34 15 4.68 15 4 15 C3.67 12.36 3.34 9.72 3 7 C2.34 7 1.68 7 1 7 C0.67 4.69 0.34 2.38 0 0 Z " fill="#E2F780" transform="translate(300,139)"/>
<path d="M0 0 C0 4.12847617 -1.45992069 5.79147876 -4 9 C-7.25 10.875 -7.25 10.875 -10 12 C-10 11.34 -10 10.68 -10 10 C-8.57421875 8.6328125 -8.57421875 8.6328125 -6.6875 7.125 C-4.04871976 4.94560255 -1.88866642 2.88854864 0 0 Z " fill="#F7FECC" transform="translate(286,244)"/>
<path d="M0 0 C0.66 0 1.32 0 2 0 C2.6987693 1.76641683 3.38366583 3.53832664 4.0625 5.3125 C4.44535156 6.29863281 4.82820312 7.28476563 5.22265625 8.30078125 C6 11 6 11 5 14 C4.15973604 12.23244474 3.32801278 10.46082737 2.5 8.6875 C2.0359375 7.70136719 1.571875 6.71523437 1.09375 5.69921875 C0 3 0 3 0 0 Z " fill="#F4EC4A" transform="translate(171,154)"/>
<path d="M0 0 C-1.28813342 0.83878455 -2.58063256 1.67086783 -3.875 2.5 C-4.59429687 2.9640625 -5.31359375 3.428125 -6.0546875 3.90625 C-8 5 -8 5 -10 5 C-10 3.68 -10 2.36 -10 1 C-8.71073008 0.63720544 -7.41846728 0.28503302 -6.125 -0.0625 C-5.40570313 -0.25972656 -4.68640625 -0.45695312 -3.9453125 -0.66015625 C-2 -1 -2 -1 0 0 Z " fill="#F5FDC5" transform="translate(166,91)"/>
<path d="M0 0 C1.65 0 3.3 0 5 0 C5 0.66 5 1.32 5 2 C6.32 2 7.64 2 9 2 C9 2.66 9 3.32 9 4 C9.66 4.33 10.32 4.66 11 5 C4.6 4.50769231 4.6 4.50769231 1.5625 1.9375 C1.046875 1.298125 0.53125 0.65875 0 0 Z " fill="#E5F983" transform="translate(162,267)"/>
<path d="M0 0 C0.99 0.33 1.98 0.66 3 1 C2.01 2.485 2.01 2.485 1 4 C1.31506627 7.14221967 1.31506627 7.14221967 2 10 C0.68 9.67 -0.64 9.34 -2 9 C-2.25 3.375 -2.25 3.375 0 0 Z " fill="#F2F250" transform="translate(143,228)"/>
<path d="M0 0 C1.65 0 3.3 0 5 0 C5.33 0.99 5.66 1.98 6 3 C8.00016466 4.20882096 8.00016466 4.20882096 10 5 C9.67 6.32 9.34 7.64 9 9 C6 6 3 3 0 0 Z " fill="#EFE944" transform="translate(258,139)"/>
<path d="M0 0 C5.39449293 -0.27429625 8.51925805 -0.36055646 13 3 C10.09905209 4.45047396 8.44027404 3.45356803 5.375 2.5625 C4.37210938 2.27503906 3.36921875 1.98757812 2.3359375 1.69140625 C1.56507813 1.46324219 0.79421875 1.23507813 0 1 C0 0.67 0 0.34 0 0 Z " fill="#F4FDBE" transform="translate(234,83)"/>
<path d="M0 0 C0.33 0 0.66 0 1 0 C1.33 2.97 1.66 5.94 2 9 C0.68 8.34 -0.64 7.68 -2 7 C-1.125 1.125 -1.125 1.125 0 0 Z " fill="#E8B51D" transform="translate(145,229)"/>
<path d="M0 0 C0.66 0 1.32 0 2 0 C1.42655063 2.86724686 1.1385485 3.8614515 -1 6 C-1.99 5.67 -2.98 5.34 -4 5 C-2.71937515 3.2925002 -1.38232443 1.62626404 0 0 Z " fill="#ECF14B" transform="translate(170,231)"/>
<path d="M0 0 C3 1 3 1 4.16796875 2.84765625 C4.50441406 3.57855469 4.84085937 4.30945313 5.1875 5.0625 C5.53167969 5.79597656 5.87585938 6.52945313 6.23046875 7.28515625 C6.48441406 7.85105469 6.73835937 8.41695312 7 9 C3.23408112 7.31934199 1.8620366 5.72407321 0 2 C0 1.34 0 0.68 0 0 Z " fill="#F4FDC6" transform="translate(123,231)"/>
<path d="M0 0 C0.66 0 1.32 0 2 0 C2 1.65 2 3.3 2 5 C0.02 5.99 0.02 5.99 -2 7 C-1.34 4.69 -0.68 2.38 0 0 Z " fill="#F8FED0" transform="translate(299,224)"/>
<path d="M0 0 C0.33 0 0.66 0 1 0 C1 2.31 1 4.62 1 7 C0.34 7 -0.32 7 -1 7 C-1.33 8.32 -1.66 9.64 -2 11 C-3 9 -3 9 -2.44140625 6.8359375 C-2.15136719 6.02382812 -1.86132812 5.21171875 -1.5625 4.375 C-1.27503906 3.55773437 -0.98757813 2.74046875 -0.69140625 1.8984375 C-0.46324219 1.27195313 -0.23507812 0.64546875 0 0 Z " fill="#F9FED8" transform="translate(304,213)"/>
<path d="M0 0 C3 1 3 1 4.25 2.875 C5 5 5 5 4 8 C0 3.375 0 3.375 0 0 Z " fill="#EAAE16" transform="translate(211,199)"/>
<path d="M0 0 C1.48484412 0.39595843 2.9628831 0.81750706 4.4375 1.25 C5.26121094 1.48203125 6.08492188 1.7140625 6.93359375 1.953125 C9 3 9 3 9.78515625 5.109375 C9.85605469 5.73328125 9.92695313 6.3571875 10 7 C8.33073546 6.02526874 6.66464358 5.04510211 5 4.0625 C4.071875 3.51722656 3.14375 2.97195312 2.1875 2.41015625 C1.465625 1.94480469 0.74375 1.47945313 0 1 C0 0.67 0 0.34 0 0 Z " fill="#F9FFD5" transform="translate(262,94)"/>
<path d="M0 0 C0.66 0.33 1.32 0.66 2 1 C0.35 2.98 -1.3 4.96 -3 7 C-4.32 6.67 -5.64 6.34 -7 6 C-4.69 4.02 -2.38 2.04 0 0 Z " fill="#F6FDC9" transform="translate(268,260)"/>
<path d="M0 0 C0 0.66 0 1.32 0 2 C-0.99 2 -1.98 2 -3 2 C-3 2.99 -3 3.98 -3 5 C-4.65 5.33 -6.3 5.66 -8 6 C-3.38461538 0 -3.38461538 0 0 0 Z " fill="#F5E845" transform="translate(230,176)"/>
<path d="M0 0 C0.99 0.33 1.98 0.66 3 1 C3 1.66 3 2.32 3 3 C3.99 3 4.98 3 6 3 C6.33 4.65 6.66 6.3 7 8 C5.8274869 7.04882866 4.66212985 6.08882991 3.5 5.125 C2.8503125 4.59132813 2.200625 4.05765625 1.53125 3.5078125 C1.0259375 3.01023437 0.520625 2.51265625 0 2 C0 1.34 0 0.68 0 0 Z " fill="#FBFEDB" transform="translate(279,106)"/>
<path d="M0 0 C0.99 0 1.98 0 3 0 C1.375 5.75 1.375 5.75 -2 8 C-1.34 5.36 -0.68 2.72 0 0 Z " fill="#E8FA90" transform="translate(289,236)"/>
</svg>
